<?xml version="1.0" standalone="no"?>
<!DOCTYPE svg PUBLIC "-//W3C//DTD SVG 1.1//EN" "http://www.w3.org/Graphics/SVG/1.1/DTD/svg11.dtd" >
<svg>
<metadata>
Created by FontForge 20110222 at Fri Mar 28 07:44:56 2014
 By Orthosie Webhosting
Copyright (c) 2010 by Jonathan Hill. All rights reserved.
</metadata>
<defs>
<font id="PlanerRegular" horiz-adv-x="833" >
  <font-face 
    font-family="PlanerRegular"
    font-weight="400"
    font-stretch="normal"
    units-per-em="1000"
    panose-1="2 0 0 0 0 0 0 0 0 0"
    ascent="750"
    descent="-250"
    x-height="500"
    cap-height="700"
    bbox="50 -240 800 933"
    underline-thickness="50"
    underline-position="-50"
    unicode-range="U+0020-FB02"
  />
<missing-glyph horiz-adv-x="300" 
 />
    <glyph glyph-name=".notdef" horiz-adv-x="300" 
 />
    <glyph glyph-name=".null" horiz-adv-x="0" 
 />
    <glyph glyph-name="nonmarkingreturn" horiz-adv-x="333" 
 />
    <glyph glyph-name="space" unicode=" " horiz-adv-x="300" 
 />
    <glyph glyph-name="exclam" unicode="!" horiz-adv-x="153" 
d="M50 666q0 26 26 26q11 0 19 -7t8 -19v-447q0 -11 -8 -19t-19 -8q-12 0 -19 8t-7 19v447zM50 70q0 26 26 26q11 0 19 -7t8 -19v-43q0 -11 -8 -19t-19 -8q-12 0 -19 8t-7 19v43z" />
    <glyph glyph-name="quotedbl" unicode="&#x22;" horiz-adv-x="289" 
d="M50 665q0 12 7.5 19.5t18.5 7.5t19 -7.5t8 -19.5v-157q0 -12 -8 -19t-19 -7t-18.5 7t-7.5 19v157zM186 665q0 12 7 19.5t19 7.5q11 0 19 -7.5t8 -19.5v-157q0 -12 -8 -19t-19 -7q-26 0 -26 26v157z" />
    <glyph glyph-name="numbersign" unicode="#" horiz-adv-x="601" 
d="M450 667q3 10 12 17.5t19 7.5q23 0 23 -25v-5l-39 -179h57q14 0 21.5 -8t7.5 -19q0 -12 -7.5 -19.5t-19.5 -7.5h-69q-11 -51 -21.5 -96.5t-21.5 -97.5h110q14 0 21.5 -8t7.5 -19q0 -12 -7.5 -19.5t-19.5 -7.5h-123l-33 -154q-2 -11 -11 -19t-19 -8q-11 0 -17 6.5t-6 16.5
v6l31 152h-161l-33 -154q-2 -11 -11 -19t-20 -8t-17 6.5t-6 16.5v6l32 152h-53q-11 0 -19 7.5t-8 19.5q0 11 8 19t21 8h62q11 51 21 96.5t22 97.5h-107q-11 0 -19 7.5t-8 19.5q0 11 8 19t21 8h115l40 184q3 10 11.5 17.5t19.5 7.5q23 0 23 -25v-5l-40 -179h163zM195 235h162
q11 51 21.5 96.5t21.5 97.5h-161z" />
    <glyph glyph-name="dollar" unicode="$" horiz-adv-x="528" 
d="M240 713q0 12 7.5 19.5t19.5 7.5q11 0 19 -7.5t8 -20.5v-20h140q12 0 20 -7.5t8 -18.5q0 -10 -7.5 -18t-18.5 -8h-142v-260q45 -9 79 -21t57.5 -31.5t35.5 -49t12 -72.5q0 -105 -45.5 -153.5t-138.5 -52.5v-19q0 -14 -8 -21.5t-19 -7.5q-12 0 -19.5 7.5t-7.5 19.5v21
h-165q-10 0 -17.5 7.5t-7.5 18.5q0 10 7.5 18t17.5 8h165v284q-41 8 -76 18.5t-60.5 29.5t-39.5 51t-14 83q0 91 49.5 130.5t140.5 42.5v22zM426 206q0 30 -8 50t-24.5 33.5t-41 22t-58.5 15.5v-275q65 5 98.5 40.5t33.5 113.5zM101 518q0 -35 9.5 -57t27.5 -36t43.5 -22
t58.5 -14v250q-66 -3 -102.5 -30.5t-36.5 -90.5z" />
    <glyph glyph-name="percent" unicode="%" horiz-adv-x="620" 
d="M178 694q57 0 84.5 -31.5t27.5 -106.5t-28 -109t-84 -34q-57 0 -84 34.5t-27 109.5q0 74 27 105.5t84 31.5zM120 557q0 -45 12 -69.5t46 -24.5t46.5 24t12.5 69q0 44 -12.5 66t-46.5 22q-33 0 -45.5 -22t-12.5 -65zM448 281q57 0 84.5 -32t27.5 -107t-27.5 -108.5
t-84.5 -33.5t-84 34t-27 109q0 74 27 106t84 32zM390 143q0 -45 12 -69t46 -24q35 0 47 23.5t12 68.5t-12 67t-47 22q-33 0 -45.5 -22t-12.5 -66zM99 12q-5 -12 -22 -12q-7 0 -15 4q-12 7 -12 22q0 9 6 18l464 640q8 11 24 11q7 0 15 -5q11 -7 11 -22q0 -9 -5 -15z" />
    <glyph glyph-name="ampersand" unicode="&#x26;" horiz-adv-x="593" 
d="M465 178q0 10 7.5 18t18.5 8q10 0 17.5 -8t7.5 -18q0 -50 -19 -88l41 -48q5 -8 5 -16q0 -11 -7.5 -18.5t-18.5 -7.5q-12 0 -20 10l-31 36q-22 -23 -52.5 -34.5t-65.5 -11.5h-130q-36 0 -67 13t-53.5 36t-35 56t-12.5 74q0 39 10.5 72t30 57.5t47 39.5t60.5 18
q-2 2 -4.5 5t-3.5 5q-18 20 -27 48.5t-9 61.5q0 38 12.5 70.5t35 56t53.5 37t67 13.5h26q36 0 67 -13.5t53.5 -37.5t35 -56.5t12.5 -70.5t-12 -69t-34 -53.5t-51.5 -35t-64.5 -12.5h-46q38 -45 76 -89t76 -90q3 9 4 19.5t1 22.5zM102 179q0 -58 33.5 -92.5t82.5 -34.5h130
q52 0 84 35l-191 228h-23q-25 0 -46 -10.5t-36.5 -28.5t-24.5 -43t-9 -54zM354 367q47 0 79 32.5t32 85.5q0 27 -9 50t-24.5 40.5t-37 27t-46.5 9.5h-26q-25 0 -46 -9.5t-36.5 -26.5t-24.5 -40t-9 -50q0 -23 6 -42.5t18 -33.5l36 -43h88z" />
    <glyph glyph-name="quotesingle" unicode="'" horiz-adv-x="153" 
d="M50 665q0 12 7 19.5t19 7.5q11 0 19 -7.5t8 -19.5v-157q0 -12 -8 -19t-19 -7q-26 0 -26 26v157z" />
    <glyph glyph-name="parenleft" unicode="(" horiz-adv-x="240" 
d="M188 -82q2 -4 2 -8q0 -11 -7 -18t-18 -7q-17 0 -23 16q-26 74 -46 145q-9 30 -17 63t-14.5 66t-10.5 65t-4 59q0 36 6.5 78.5t17 86t22 83.5t22 71t17 49.5l6.5 18.5q7 16 23 16q11 0 18 -7t7 -18q0 -5 -2 -8q-23 -65 -41 -131q-16 -57 -28.5 -121t-12.5 -118
q0 -55 12.5 -121t28.5 -124q18 -68 42 -136z" />
    <glyph glyph-name="parenright" unicode=")" horiz-adv-x="240" 
d="M52 -82q23 68 41 136q15 58 28 124t13 121q0 36 -6 77t-15 82.5t-19.5 79t-19.5 67t-15 46.5l-6 17q-2 4 -2 9q0 11 7 18t18 7q7 0 13.5 -4.5t9.5 -10.5q25 -70 45 -140q9 -30 17 -62t14.5 -64.5t10.5 -63.5t4 -58t-4 -59t-10.5 -65t-14.5 -66t-17 -63q-20 -71 -46 -145
q-3 -8 -9.5 -12t-13.5 -4q-25 0 -25 25q0 2 2 8z" />
    <glyph glyph-name="asterisk" unicode="*" horiz-adv-x="412" 
d="M310 420l1 -8q0 -12 -10 -22q-4 -4 -8 -4q-2 -1 -4.5 -1h-4.5q-13 0 -21 10l-60 82l-58 -81q-7 -7 -17 -9h-4q-4 0 -8 0.5t-9 4.5t-7 12q-2 4 -2 9q0 9 6 17q15 22 29.5 40t29.5 40l-97 32q-13 5 -15 16q-1 1 -1 4v4q0 5 1 7q2 6 7 11.5t14 7.5q1 0 2.5 0.5t2.5 0.5
t1.5 -0.5t3.5 -0.5l98 -33v100q0 8 5 15t12 9q4 2 10 2q8 0 15.5 -5.5t9.5 -13.5q2 -4 2 -9v-98l92 28q4 2 10 2q18 0 25 -20q1 -3 1 -7q0 -20 -18 -25l-97 -29z" />
    <glyph glyph-name="plus" unicode="+" horiz-adv-x="587" 
d="M319 34q-2 -11 -8.5 -18.5t-18.5 -7.5q-10 0 -18 7.5t-8 19.5v190h-190q-11 2 -18.5 9t-7.5 18q0 10 8 18t19 8h189v191q2 11 9.5 18t18.5 7q25 0 25 -24v-192h192q11 0 18.5 -8t7.5 -19t-7.5 -18.5t-18.5 -7.5h-192v-191z" />
    <glyph glyph-name="comma" unicode="," horiz-adv-x="193" 
d="M65 -15q7 2 15.5 9t8.5 19v69q0 11 7.5 19.5t19.5 8.5q11 0 19 -8.5t8 -19.5v-69q0 -26 -17.5 -46t-42.5 -27q-5 -2 -6.5 -2h-3.5q-10 0 -16.5 6.5t-6.5 17.5q0 8 4.5 14.5t10.5 8.5z" />
    <glyph glyph-name="hyphen" unicode="-" horiz-adv-x="426" 
d="M76 235q-11 2 -18.5 8.5t-7.5 18.5q0 10 8 17.5t19 7.5h273q12 0 19 -7.5t7 -18.5q0 -26 -26 -26h-274z" />
    <glyph glyph-name="period" unicode="." horiz-adv-x="157" 
d="M50 67q0 12 8 20.5t21 8.5q11 0 19.5 -8.5t8.5 -20.5v-36q0 -14 -8.5 -22.5t-19.5 -8.5q-13 0 -21 8t-8 21v38z" />
    <glyph glyph-name="slash" unicode="/" horiz-adv-x="437" 
d="M101 16q-4 -5 -10.5 -10.5t-13.5 -5.5t-11 3q-16 6 -16 25q0 3 1 6.5t2 8.5l282 632q9 18 25 18q2 0 5.5 -1t5.5 -2q16 -5 16 -24q0 -3 -1 -6t-2 -5z" />
    <glyph glyph-name="zero" unicode="0" horiz-adv-x="570" 
d="M285 663q111 0 173 -62t62 -189v-182q0 -60 -16.5 -105t-47.5 -75t-74 -44.5t-97 -14.5q-53 0 -96.5 15t-74.5 45t-47.5 74.5t-16.5 104.5v182q0 65 16.5 112.5t47.5 78t74 45.5t97 15zM285 612q-88 0 -134.5 -49.5t-46.5 -150.5v-182q0 -93 49.5 -140t131.5 -47
q83 0 132 47t49 140v182q0 98 -46 149t-135 51z" />
    <glyph glyph-name="one" unicode="1" horiz-adv-x="343" 
d="M229 657q10 6 22 6q18 0 30 -12t12 -30v-592q0 -13 -8 -21t-19 -8t-19 8t-8 19v573l-146 -99q-8 -5 -16 -5q-12 0 -19.5 8t-7.5 19q0 14 12 23z" />
    <glyph glyph-name="two" unicode="2" horiz-adv-x="530" 
d="M304 287q19 18 36.5 36.5t30.5 39.5t21 45t8 53v29q0 30 -12.5 52.5t-33 38t-47.5 23.5t-55 8h-169q-10 0 -18 7.5t-8 17.5q0 11 8 18.5t18 7.5h170q42 0 78 -11.5t63 -33t42 -54t15 -74.5v-28q0 -36 -8.5 -65.5t-22.5 -54.5t-34 -47t-42 -43l-214 -200h322q13 0 20.5 -8
t7.5 -18q0 -11 -7.5 -18.5t-18.5 -7.5h-371q-13 0 -23 10t-10 24t10 24z" />
    <glyph glyph-name="three" unicode="3" horiz-adv-x="501" 
d="M129 341q0 11 8 18.5t18 7.5h134q47 0 78.5 32.5t31.5 85.5q0 27 -9 50t-24.5 40.5t-36.5 27t-46 9.5h-205q-12 0 -20 7.5t-8 17.5q0 11 8 18.5t18 7.5h207q36 0 67 -13.5t53.5 -37.5t35 -56.5t12.5 -70.5q0 -102 -77 -145q37 -24 57 -66t20 -96q0 -40 -13 -73t-35.5 -56
t-53 -36t-66.5 -13h-207q-10 0 -18 7.5t-8 18.5q0 10 8 18t18 8h207q24 0 45.5 9t37 25.5t24.5 39.5t9 52q0 30 -9 55t-24.5 43t-36.5 28.5t-46 10.5h-126q-12 0 -20 8t-8 18z" />
    <glyph glyph-name="four" unicode="4" horiz-adv-x="570" 
d="M120 134q-29 0 -49.5 20t-20.5 50q0 8 2 15t5 15l166 413q7 16 25 16q11 0 19 -7.5t8 -18.5q0 -4 -2 -10l-169 -415q-2 -4 -2 -8q0 -8 5 -12.5t13 -4.5h240v147q0 13 8 20.5t19 7.5q12 0 19.5 -7.5t7.5 -18.5v-149h79q12 0 19.5 -7.5t7.5 -18.5q0 -12 -7.5 -19.5
t-19.5 -7.5h-79v-105q0 -13 -7.5 -21t-19.5 -8q-11 0 -19 8t-8 19v107h-240z" />
    <glyph glyph-name="five" unicode="5" horiz-adv-x="508" 
d="M50 26q0 11 7.5 19t18.5 8h166q32 0 61.5 6.5t52 21t36 38t13.5 57.5v69q0 29 -11.5 50t-32 35t-47.5 21t-57 7h-164q-19 0 -31 11.5t-12 30.5v211q0 19 12 31.5t31 12.5h318q11 0 19 -8t8 -19q0 -12 -8 -19t-19 -7h-308v-193h155q42 0 78.5 -10t63.5 -30t42.5 -51
t15.5 -73v-69q0 -48 -16.5 -81.5t-46 -54.5t-68.5 -30.5t-84 -9.5h-167q-11 0 -18.5 7.5t-7.5 18.5z" />
    <glyph glyph-name="six" unicode="6" horiz-adv-x="536" 
d="M105 412h171q104 0 157 -43t53 -132v-42q0 -43 -13.5 -79t-40.5 -61.5t-67.5 -40t-94.5 -14.5q-110 0 -165 53.5t-55 175.5v195q0 123 63.5 181t177.5 58h145q12 0 20 -7.5t8 -18.5q0 -10 -7.5 -17.5t-18.5 -7.5h-147q-88 0 -137 -46t-49 -142v-12zM105 360v-129
q0 -51 10 -85t30.5 -55t51.5 -30t73 -9q84 0 122 39t38 104v42q0 60 -39 91.5t-117 31.5h-169z" />
    <glyph glyph-name="seven" unicode="7" horiz-adv-x="507" 
d="M404 594q0 1 0.5 2t0.5 3q0 5 -3.5 9t-8.5 4h-315q-12 0 -20 7.5t-8 17.5q0 11 8 18.5t18 7.5h317q26 0 45 -19t19 -45q0 -13 -5 -24l-245 -560q-8 -15 -24 -15q-10 0 -18 7.5t-8 18.5q0 3 2 11z" />
    <glyph glyph-name="eight" unicode="8" horiz-adv-x="566" 
d="M218 0q-36 0 -66.5 13t-53 36t-35.5 56t-13 74q0 54 20 96t57 65q-37 21 -57 58t-20 88q0 38 12.5 70.5t35 56t53.5 37t67 13.5h130q36 0 67 -13.5t53.5 -37.5t35 -56.5t12.5 -70.5q0 -102 -77 -145q37 -24 57 -66t20 -96q0 -40 -13 -73t-35.5 -56t-53 -36t-66.5 -13
h-130zM348 52q24 0 45.5 9t37 25.5t24.5 39.5t9 52q0 30 -9 55t-24.5 43t-36.5 28.5t-46 10.5h-130q-25 0 -46 -10.5t-36.5 -28.5t-24.5 -43t-9 -54q0 -58 33.5 -92.5t82.5 -34.5h130zM354 367q47 0 78.5 32.5t31.5 85.5q0 27 -9 50t-24.5 40.5t-36.5 27t-46 9.5h-130
q-25 0 -46 -9.5t-36.5 -26.5t-24.5 -40t-9 -50q0 -53 31.5 -85t79.5 -34h141z" />
    <glyph glyph-name="nine" unicode="9" horiz-adv-x="536" 
d="M430 252h-170q-104 0 -157 43t-53 132v41q0 87 53.5 141t162.5 54q110 0 165 -53t55 -175v-196q0 -123 -63.5 -181t-177.5 -58h-145q-13 0 -20.5 7.5t-7.5 18.5q0 10 7.5 18t18.5 8h147q88 0 136.5 45.5t48.5 141.5v13zM430 304v129q0 50 -10 84t-30.5 55t-51 30.5
t-72.5 9.5q-85 0 -123 -39t-38 -105v-41q0 -123 157 -123h168z" />
    <glyph glyph-name="colon" unicode=":" horiz-adv-x="157" 
d="M50 67q0 12 8 20.5t21 8.5q11 0 19.5 -8.5t8.5 -20.5v-36q0 -14 -8.5 -22.5t-19.5 -8.5q-13 0 -21 8t-8 21v38zM50 398q0 11 8 20t21 9q11 0 19.5 -9t8.5 -20v-36q0 -14 -8.5 -22.5t-19.5 -8.5q-13 0 -21 8t-8 21v38z" />
    <glyph glyph-name="semicolon" unicode=";" horiz-adv-x="195" 
d="M88 398q0 11 8 20t21 9q11 0 19.5 -9t8.5 -20v-36q0 -14 -8.5 -22.5t-19.5 -8.5q-13 0 -21 8t-8 21v38zM65 -15q7 2 15.5 9t8.5 19v69q0 11 7.5 19.5t19.5 8.5q11 0 19 -8.5t8 -19.5v-69q0 -26 -17 -46t-43 -27q-5 -2 -6.5 -2h-3.5q-10 0 -16.5 6.5t-6.5 17.5
q0 8 4.5 14.5t10.5 8.5z" />
    <glyph glyph-name="less" unicode="&#x3c;" horiz-adv-x="457" 
d="M67 275q-17 12 -17 35q0 22 18 35l303 196q4 2 10 2q11 0 18.5 -7t7.5 -19q0 -11 -11 -19l-286 -186l284 -197q13 -7 13 -23q0 -11 -7.5 -17.5t-18.5 -6.5q-9 0 -15 5q-75 50 -137 92q-27 18 -53 35.5t-48.5 32.5t-38.5 26t-22 16z" />
    <glyph glyph-name="equal" unicode="=" horiz-adv-x="587" 
d="M76 329q-11 2 -18.5 8.5t-7.5 18.5q0 10 8 18t19 8h434q11 0 18.5 -8t7.5 -19q0 -12 -7.5 -19t-18.5 -7h-435zM76 167q-11 2 -18.5 9t-7.5 18t8 18.5t19 7.5h434q11 0 18.5 -7.5t7.5 -19.5q0 -11 -7.5 -18.5t-18.5 -7.5h-435z" />
    <glyph glyph-name="greater" unicode="&#x3e;" horiz-adv-x="457" 
d="M389 275q-8 -6 -33.5 -23.5t-58.5 -40t-70 -47t-67.5 -45t-50.5 -33.5l-20 -13q-4 -2 -6 -3.5t-7 -1.5q-12 0 -19 6.5t-7 17.5q0 16 11 22l285 198q-9 6 -26 17t-39 25t-47 30.5t-50 32.5q-58 38 -125 81q-9 7 -9 19q0 26 26 26q5 0 9 -2l302 -196q20 -13 20 -35
q0 -23 -18 -35z" />
    <glyph glyph-name="question" unicode="?" horiz-adv-x="456" 
d="M171 242q0 21 4.5 36t12 28t18.5 24.5t25 23.5l62 58q57 52 57 110q0 118 -138 118h-134q-14 0 -21 7.5t-7 18.5t7 18.5t19 7.5h136q91 0 142.5 -42.5t51.5 -127.5q0 -45 -19 -79.5t-57 -68.5l-63 -56q-20 -18 -31.5 -37t-11.5 -39v-22q0 -13 -8 -20.5t-19 -7.5
t-18.5 7.5t-7.5 18.5v24zM169 69q0 11 8.5 19.5t20.5 8.5q11 0 19.5 -8.5t8.5 -19.5v-39q0 -14 -8.5 -22t-19.5 -8q-12 0 -20.5 8.5t-8.5 19.5v41z" />
    <glyph glyph-name="at" unicode="@" horiz-adv-x="570" 
d="M347 239v87h-91q-18 0 -31 -12.5t-13 -29.5q0 -18 13 -31.5t31 -13.5h91zM377 3q-21 -7 -44.5 -9.5t-47.5 -2.5q-53 0 -96.5 15t-74.5 45t-47.5 74.5t-16.5 104.5v182q0 65 16.5 112.5t47.5 78t74 45.5t97 15q111 0 173 -62.5t62 -191.5q0 -43 -12.5 -83t-33.5 -70.5
t-49.5 -49t-59.5 -18.5h-109q-40 0 -68 27.5t-28 68.5q0 40 28 67t68 27h91v32q0 20 -9.5 34t-28.5 14h-105q-26 0 -26 24q0 11 7 18.5t19 7.5h105q40 0 65 -27t25 -69v-165q32 23 49.5 65.5t17.5 99.5q0 98 -46 149t-135 51q-88 0 -134.5 -49.5t-46.5 -150.5v-182
q0 -93 49.5 -140t131.5 -47q41 0 74 11q5 2 8 2q13 0 20.5 -8t7.5 -20q0 -8 -5 -15.5t-13 -9.5z" />
    <glyph glyph-name="A" unicode="A" horiz-adv-x="628" 
d="M340 625q-4 8 -11 14t-15 6t-15 -6.5t-11 -13.5q-26 -88 -54.5 -181.5t-55.5 -181.5h272zM577 32q0 -1 0.5 -3t0.5 -3q0 -10 -8 -18t-19 -8q-8 0 -15 6t-10 12l-61 191h-304l-58 -191q-3 -7 -10.5 -12.5t-16.5 -5.5q-10 0 -18 8t-8 18q0 6 1 9q45 152 91.5 303t92.5 304
q8 26 29.5 42t49.5 16q29 0 50 -16t29 -42z" />
    <glyph glyph-name="B" unicode="B" horiz-adv-x="580" 
d="M530 193q0 -40 -15 -75t-41.5 -61.5t-62 -41.5t-75.5 -15h-241q-20 0 -32.5 12.5t-12.5 32.5v610q0 20 12.5 32.5t32.5 12.5h225q38 0 71.5 -14.5t58 -39t39 -58t14.5 -71.5q0 -49 -21 -87t-59 -63q48 -25 77.5 -71t29.5 -103zM104 335v-283h232q29 0 54.5 11t45 30.5
t31 45t11.5 54.5t-11.5 55t-31 45.5t-45 30.5t-54.5 11h-232zM320 388q27 0 50.5 10t41.5 27.5t28 41t10 50.5t-10 50.5t-28 41.5t-41.5 28t-50.5 10h-216v-259h216z" />
    <glyph glyph-name="C" unicode="C" horiz-adv-x="533" 
d="M50 458q0 66 16 112t46.5 75t74 42t98.5 13h172q11 0 18.5 -8t7.5 -18q0 -11 -7.5 -19t-18.5 -8h-172q-84 0 -132 -44t-48 -145v-222q0 -40 11.5 -73.5t34.5 -58t56.5 -38.5t77.5 -14h170q12 0 20 -7.5t8 -18.5q0 -10 -7.5 -18t-18.5 -8h-172q-57 0 -100.5 17t-73.5 48
t-45.5 74.5t-15.5 96.5v222z" />
    <glyph glyph-name="D" unicode="D" horiz-adv-x="574" 
d="M469 458q0 101 -48 145t-132 44h-185v-595h185q44 0 77.5 14t56.5 38.5t34.5 58t11.5 73.5v222zM50 655q0 20 12.5 32.5t32.5 12.5h194q55 0 98.5 -13t74 -42t46.5 -75t16 -112v-222q0 -53 -15.5 -96.5t-45.5 -74.5t-73.5 -48t-100.5 -17h-194q-20 0 -32.5 12.5
t-12.5 32.5v610z" />
    <glyph glyph-name="E" unicode="E" horiz-adv-x="517" 
d="M50 655q0 20 13 32.5t32 12.5h343q14 0 21.5 -8t7.5 -19q0 -12 -7.5 -19.5t-19.5 -7.5h-335v-255h275q13 0 21 -8t8 -19q0 -12 -8 -20t-19 -8h-277v-282h333q14 0 21.5 -7.5t7.5 -19.5q0 -11 -7.5 -19t-19.5 -8h-345q-19 0 -32 12.5t-13 32.5v610z" />
    <glyph glyph-name="F" unicode="F" horiz-adv-x="517" 
d="M105 336v-307q0 -13 -8 -21t-19 -8q-12 0 -20 8t-8 19v628q0 20 13 32.5t32 12.5h343q14 0 21.5 -8t7.5 -19q0 -12 -7.5 -19.5t-19.5 -7.5h-335v-255h275q13 0 21 -8t8 -19q0 -12 -8 -20t-19 -8h-277z" />
    <glyph glyph-name="G" unicode="G" horiz-adv-x="587" 
d="M336 331q0 10 7.5 18t18.5 8h130q20 0 32.5 -13t12.5 -32v-267q0 -20 -12.5 -32.5t-32.5 -12.5h-207q-57 0 -100.5 17t-73.5 48t-45.5 74.5t-15.5 96.5v222q0 66 16 112t46.5 75t74 42t98.5 13h191q10 0 18 -8t8 -18q0 -11 -8 -19t-18 -8h-191q-84 0 -132 -44t-48 -145
v-222q0 -40 12 -73.5t34.5 -58t56 -38.5t77.5 -14h198v252h-119q-13 0 -20.5 8t-7.5 19z" />
    <glyph glyph-name="H" unicode="H" horiz-adv-x="596" 
d="M491 673q0 11 8 19t20 8q11 0 19 -8t8 -21v-642q0 -13 -8 -21t-19 -8q-12 0 -20 8t-8 19v298h-387v-296q0 -13 -7.5 -21t-19.5 -8q-11 0 -19 8t-8 19v646q0 11 8 19t19 8q12 0 19.5 -8t7.5 -21v-294h387v296z" />
    <glyph glyph-name="I" unicode="I" horiz-adv-x="154" 
d="M50 673q0 11 7.5 19t19.5 8t19.5 -8t7.5 -21v-642q0 -13 -7.5 -21t-19.5 -8t-19.5 8t-7.5 19v646z" />
    <glyph glyph-name="J" unicode="J" horiz-adv-x="288" 
d="M50 26q0 11 7.5 18.5t18.5 7.5q34 0 55 3.5t32.5 17t15.5 41.5t4 78v481q0 11 8 19t19 8q12 0 19.5 -8t7.5 -21v-231q0 -56 0.5 -116t0.5 -141q0 -65 -9.5 -101.5t-29 -54.5t-50 -22.5t-71.5 -4.5q-13 0 -20.5 8t-7.5 18z" />
    <glyph glyph-name="K" unicode="K" horiz-adv-x="531" 
d="M475 45q6 -8 6 -18q0 -11 -7.5 -19t-19.5 -8q-14 0 -21 11q-59 73 -121.5 152.5t-121.5 152.5q-2 4 -6 4h-80v-291q0 -13 -8 -21t-19 -8q-12 0 -19.5 8t-7.5 19v646q0 11 7.5 19t19.5 8q11 0 19 -8t8 -19v-301h78q4 0 5 1l234 316q9 11 21 11t20 -8t8 -19q0 -10 -5 -16
l-233 -310z" />
    <glyph glyph-name="L" unicode="L" horiz-adv-x="486" 
d="M50 673q0 11 8 19t19 8q12 0 20 -8t8 -19v-619h302q13 0 21 -7.5t8 -19.5q0 -11 -8 -19t-19 -8h-314q-19 0 -32 12.5t-13 32.5v628z" />
    <glyph glyph-name="M" unicode="M" horiz-adv-x="722" 
d="M50 628q0 29 21.5 50.5t50.5 21.5q24 0 43 -13.5t26 -36.5l164 -553q44 140 88 278t88 277q7 21 26.5 34.5t42.5 13.5q29 0 50.5 -21.5t21.5 -50.5v-601q0 -11 -8 -19t-19 -8q-12 0 -19.5 8t-7.5 19v601q0 8 -5 13t-13 5q-13 0 -15 -12l-98 -304t-97 -304
q-4 -11 -12.5 -18.5t-22.5 -7.5t-23 7.5t-13 18.5l-181 607q-4 13 -16 13q-8 0 -13 -5t-5 -13v-601q0 -11 -7.5 -19t-19.5 -8q-11 0 -19 8t-8 19v601z" />
    <glyph glyph-name="N" unicode="N" horiz-adv-x="606" 
d="M501 673q0 11 8 19t19 8q12 0 20 -8t8 -19v-598q0 -32 -21.5 -53.5t-53.5 -21.5q-23 0 -41 12t-27 32l-269 589q-2 5 -7 9t-12 4q-9 0 -15 -6t-6 -15v-598q0 -11 -7.5 -19t-19.5 -8q-11 0 -19 8t-8 19v598q0 32 21.5 53.5t53.5 21.5q23 0 41 -12t27 -32l269 -589
q2 -5 7 -9t12 -4q8 0 13 6t7 15v598z" />
    <glyph glyph-name="O" unicode="O" horiz-adv-x="616" 
d="M331 700q55 0 98.5 -13t74 -42t46.5 -75t16 -112v-222q0 -53 -15.5 -96.5t-45.5 -74.5t-73.5 -48t-100.5 -17h-46q-56 0 -100 17t-74 48t-45.5 74.5t-15.5 96.5v222q0 66 16.5 112t47 75t74 42t97.5 13h46zM106 236q0 -40 11.5 -73.5t34.5 -58t56 -38.5t77 -14h46
q44 0 77.5 14t56.5 38.5t34.5 58t11.5 73.5v222q0 101 -48 145t-132 44h-46q-83 0 -131 -44t-48 -145v-222z" />
    <glyph glyph-name="P" unicode="P" horiz-adv-x="553" 
d="M50 655q0 20 12.5 32.5t31.5 12.5h226q38 0 71.5 -14.5t58 -39.5t39 -58t14.5 -70q0 -38 -14.5 -71.5t-39 -58t-58 -39t-71.5 -14.5h-216v-306q0 -13 -8 -21t-19 -8q-12 0 -19.5 8t-7.5 19v628zM320 388q27 0 50.5 10t41.5 28t28 41.5t10 50.5t-10 50.5t-28 41
t-41.5 27.5t-50.5 10h-216v-259h216z" />
    <glyph glyph-name="Q" unicode="Q" horiz-adv-x="616" 
d="M331 700q55 0 98.5 -13t74 -42t46.5 -75t16 -112v-222q0 -71 -27 -124.5t-81 -82.5l91 -90q10 -8 10 -22q0 -11 -8 -19t-21 -8q-11 0 -19 8l-110 109q-29 -7 -70 -7h-46q-56 0 -100 17t-74 48t-45.5 74.5t-15.5 96.5v222q0 66 16.5 112t47 75t74 42t97.5 13h46zM106 236
q0 -40 11.5 -73.5t34.5 -58t56 -38.5t77 -14h46q44 0 77.5 14t56.5 38.5t34.5 58t11.5 73.5v222q0 101 -48 145t-132 44h-46q-83 0 -131 -44t-48 -145v-222z" />
    <glyph glyph-name="R" unicode="R" horiz-adv-x="553" 
d="M266 335h-162v-308q0 -11 -8 -19t-19 -8q-12 0 -19.5 8t-7.5 19v628q0 20 12.5 32.5t31.5 12.5h226q38 0 71.5 -14.5t58 -39.5t39 -58t14.5 -70t-13.5 -69.5t-37 -57t-55 -39.5t-67.5 -17l158 -295q2 -5 2.5 -7.5t0.5 -5.5q0 -11 -8 -19t-19 -8q-17 0 -24 16zM320 388
q27 0 50.5 10t41.5 28t28 41.5t10 50.5t-10 50.5t-28 41t-41.5 27.5t-50.5 10h-216v-259h216z" />
    <glyph glyph-name="S" unicode="S" horiz-adv-x="533" 
d="M50 26q0 11 7.5 18.5t18.5 7.5h194q78 0 119.5 36t41.5 120q0 33 -9.5 54.5t-29.5 35t-51 22t-73 16.5q-45 9 -84.5 18.5t-69.5 28.5t-47 52t-17 89q0 49 15 82.5t43.5 54.5t69 30t91.5 9h169q13 0 21 -8t8 -18q0 -11 -8 -19t-19 -8h-171q-78 0 -122.5 -27t-44.5 -96
q0 -39 12.5 -62.5t35.5 -37.5t55.5 -21.5t72.5 -14.5q49 -9 87 -20.5t64 -31.5t40 -51t14 -77q0 -112 -54 -160t-159 -48h-194q-11 0 -18.5 8t-7.5 18z" />
    <glyph glyph-name="T" unicode="T" horiz-adv-x="606" 
d="M278 647h-202q-10 0 -18 8t-8 19q0 10 8 18t18 8h451q13 0 21 -8t8 -18q0 -11 -8 -19t-19 -8h-199v-621q0 -10 -8 -18t-18 -8q-11 0 -18.5 8t-7.5 18v621z" />
    <glyph glyph-name="U" unicode="U" horiz-adv-x="579" 
d="M50 674q0 10 7.5 18t18.5 8t18.5 -8t7.5 -18v-473q0 -37 11 -66t29 -48.5t41.5 -29.5t49.5 -10h122q59 0 90.5 42.5t31.5 111.5v471q0 12 7.5 20t18.5 8t18.5 -8t7.5 -18v-473q0 -47 -12 -85t-34.5 -65t-55.5 -42t-74 -15h-119q-37 0 -70.5 13t-58.5 39.5t-40 65
t-15 89.5v473z" />
    <glyph glyph-name="V" unicode="V" horiz-adv-x="602" 
d="M301 0q-29 0 -51.5 16.5t-30.5 42.5l-168 609q0 1 -0.5 3t-0.5 3q0 10 8 18t18 8q8 0 16 -5t10 -13l171 -607q4 -8 11 -14.5t17 -6.5q9 0 16.5 6.5t11.5 14.5q42 150 85.5 303.5t85.5 303.5q2 8 9.5 13t15.5 5q11 0 19 -8t8 -18q0 -1 -0.5 -3.5t-0.5 -4.5l-168 -607
q-8 -26 -30.5 -42.5t-51.5 -16.5z" />
    <glyph glyph-name="W" unicode="W" horiz-adv-x="774" 
d="M641 60q-4 -26 -23 -43t-46 -17q-22 0 -40 13t-27 31l-118 293l-119 -293q-9 -18 -27 -31t-40 -13q-27 0 -46 17t-23 43l-82 610q0 14 8.5 22t18.5 8q11 0 18.5 -7t9.5 -16l78 -610q1 -6 5.5 -10.5t12.5 -4.5q14 0 18 11l137 330q3 8 11 14t20 6q10 0 18.5 -6t12.5 -14
l136 -330q4 -11 18 -11q8 0 12.5 4.5t5.5 10.5l80 613q2 8 9 14t18 6t19 -8t8 -19l-0.5 -3.5t-2.5 -21t-7 -54t-14.5 -104.5t-23.5 -173t-35 -257z" />
    <glyph glyph-name="X" unicode="X" horiz-adv-x="577" 
d="M290 306l-190 -293q-7 -13 -23 -13q-11 0 -19 8t-8 19q0 9 5 15l199 305l-199 311q-5 6 -5 15q0 11 8 19t19 8q17 0 22 -13q50 -78 95.5 -148t94.5 -148l188 296q8 13 23 13q12 0 19.5 -8t7.5 -19q0 -10 -5 -15l-196 -311l196 -305q5 -8 5 -15q0 -11 -7.5 -19t-19.5 -8
q-16 0 -22 13z" />
    <glyph glyph-name="Y" unicode="Y" horiz-adv-x="569" 
d="M313 319v-292q0 -11 -7.5 -19t-19.5 -8t-19.5 8t-7.5 19v292l-205 338q-2 5 -3 9t-1 7q0 11 7.5 19t19.5 8q15 0 23 -13l186 -314l183 313q9 14 23 14q12 0 19.5 -8t7.5 -19q0 -4 -0.5 -7t-2.5 -7z" />
    <glyph glyph-name="Z" unicode="Z" horiz-adv-x="546" 
d="M50 674q0 10 7.5 18t18.5 8h354q28 0 47 -19t19 -47q0 -11 -4 -21t-9 -18l-379 -522q-2 -2 -2 -7q0 -12 14 -12h351q13 0 21 -7.5t8 -19.5q0 -11 -8 -19t-19 -8h-353q-28 0 -47 19t-19 47q0 21 12 39l379 522q2 2 2 7q0 13 -13 13h-354q-11 0 -18.5 8t-7.5 19z" />
    <glyph glyph-name="bracketleft" unicode="[" horiz-adv-x="294" 
d="M50 700q0 17 11.5 28.5t29.5 11.5h126q27 0 27 -25q0 -11 -7 -18t-18 -7h-116v-758h114q13 0 20 -7t7 -18q0 -25 -25 -25h-128q-18 0 -29.5 11.5t-11.5 28.5v778z" />
    <glyph glyph-name="backslash" unicode="\" horiz-adv-x="437" 
d="M52 655q0 2 -1 5t-1 6q0 8 4 15t12 9q2 1 5.5 2t5.5 1q16 0 25 -18l281 -632q2 -5 3 -8.5t1 -6.5q0 -19 -16 -25q-5 -3 -11 -3q-7 0 -13.5 5.5t-10.5 10.5z" />
    <glyph glyph-name="bracketright" unicode="]" horiz-adv-x="294" 
d="M244 -78q0 -17 -11.5 -28.5t-28.5 -11.5h-129q-11 0 -18 7t-7 18t7.5 18t19.5 7h115v758h-117q-11 0 -18 7t-7 18t7.5 18t19.5 7h127q17 0 28.5 -11.5t11.5 -28.5v-778z" />
    <glyph glyph-name="asciicircum" unicode="^" horiz-adv-x="575" 
d="M318 675q6 -8 23.5 -33.5t40 -59t47 -70t45 -67t33.5 -50.5l13 -20q2 -4 3.5 -6t1.5 -7q0 -12 -6.5 -19t-17.5 -7q-17 0 -23 11l-196 285q-6 -9 -17.5 -26t-25.5 -39t-30.5 -47t-32.5 -50q-38 -58 -81 -125q-8 -9 -19 -9t-18.5 7t-7.5 19q0 5 2 9l196 302q13 19 36 19
q11 0 20 -4t14 -13z" />
    <glyph glyph-name="underscore" unicode="_" horiz-adv-x="530" 
d="M75 -66q-11 2 -18 8.5t-7 18.5q0 10 7.5 18t18.5 8h378q12 0 19 -8t7 -19q0 -26 -26 -26h-379z" />
    <glyph glyph-name="grave" unicode="`" horiz-adv-x="309" 
d="M64 619q-14 9 -14 24q0 7 2 11q8 14 24 14l12 -3q37 -17 78 -37t78 -37q15 -7 15 -23q0 -2 -0.5 -4.5t-2.5 -6.5q-8 -15 -22 -15q-3 0 -7 1t-7 3z" />
    <glyph glyph-name="a" unicode="a" horiz-adv-x="471" 
d="M79 484q0 11 7 18t18 7h181q30 0 55 -11t43 -30.5t28 -46.5t10 -58v-323q0 -17 -11.5 -28.5t-28.5 -11.5h-187q-30 0 -56.5 11t-46 30.5t-30.5 45.5t-11 56t11 56t30.5 45.5t46 31t56.5 11.5h174v73q0 42 -22 70.5t-61 28.5h-179q-27 0 -27 25zM368 52v184h-174
q-19 0 -36 -7.5t-29.5 -20t-19.5 -29.5t-7 -36t7 -35.5t19.5 -29t29.5 -19.5t36 -7h174z" />
    <glyph glyph-name="b" unicode="b" horiz-adv-x="476" 
d="M50 665q0 12 7.5 19.5t18.5 7.5t19 -7.5t8 -19.5v-156h166q31 0 59.5 -11t50.5 -32.5t34.5 -52.5t12.5 -71v-154q0 -27 -8.5 -60t-27 -61.5t-49 -47.5t-74.5 -19h-175q-17 0 -29.5 12.5t-12.5 29.5v623zM103 53h164q46 0 76 38t30 100v151q0 26 -8.5 47.5t-22.5 37
t-33 24t-40 8.5h-166v-406z" />
    <glyph glyph-name="c" unicode="c" horiz-adv-x="433" 
d="M358 509q11 0 18 -7t7 -18q0 -25 -25 -25h-113q-75 0 -109 -40t-34 -114v-95q0 -78 35.5 -119t107.5 -41h113q11 0 18 -7t7 -18t-7 -18t-18 -7h-113q-99 0 -147 51t-48 160v94q0 101 47.5 152.5t147.5 51.5h113z" />
    <glyph glyph-name="d" unicode="d" horiz-adv-x="476" 
d="M426 42q0 -17 -12.5 -29.5t-29.5 -12.5h-175q-44 0 -74.5 19t-49 47.5t-27 61.5t-8.5 60v154q0 40 12.5 71t34.5 52.5t50 32.5t60 11h166v156q0 12 8 19.5t19 7.5q10 0 18 -7.5t8 -19.5v-623zM373 459h-166q-21 0 -40 -8.5t-33 -24t-22.5 -37t-8.5 -47.5v-151
q0 -62 30 -100t76 -38h164v406z" />
    <glyph glyph-name="e" unicode="e" horiz-adv-x="480" 
d="M103 228q1 -44 7.5 -77t21.5 -55.5t40 -34t63 -11.5h153q12 0 19 -7t7 -18t-7 -18t-18 -7h-155q-54 0 -89.5 14.5t-56.5 44t-29.5 74t-8.5 104.5v78q0 46 14.5 82.5t40 61t59.5 37.5t74 13q94 0 143 -49t49 -145v-47q0 -17 -11.5 -28.5t-29.5 -11.5h-286zM377 278v37
q0 71 -34.5 107.5t-104.5 36.5q-64 0 -99.5 -39t-35.5 -105v-37h274z" />
    <glyph glyph-name="f" unicode="f" horiz-adv-x="375" 
d="M50 475q0 11 7 18t18 7h43q8 85 51.5 130.5t124.5 59.5q30 0 30 -25q0 -10 -6 -16t-14 -8q-59 -10 -90.5 -45t-41.5 -96h128q11 0 18 -7t7 -18t-7 -18t-18 -7h-130v-423q0 -12 -8.5 -19.5t-19.5 -7.5t-18 7t-7 18v425h-42q-11 0 -18 7t-7 18z" />
    <glyph glyph-name="g" unicode="g" horiz-adv-x="476" 
d="M386 509q17 0 28.5 -12t11.5 -29v-466q0 -58 -8.5 -101t-29.5 -71.5t-56.5 -43t-89.5 -14.5h-154q-12 0 -19 7t-7 18q0 25 25 25h154q37 0 62.5 11.5t40.5 34t21.5 55.5t7.5 77h-166q-32 0 -60 11t-50 32.5t-34.5 52.5t-12.5 70v154q0 27 8.5 60t27 61.5t49 48t74.5 19.5
h177zM373 456h-164q-46 0 -76 -38t-30 -101v-151q0 -26 8.5 -47.5t22.5 -36.5t33 -23.5t40 -8.5h166v406z" />
    <glyph glyph-name="h" unicode="h" horiz-adv-x="478" 
d="M50 665q0 12 7.5 19.5t18.5 7.5t19 -7.5t8 -19.5v-156h168q31 0 59.5 -11t50.5 -32.5t34.5 -52.5t12.5 -71v-316q0 -11 -8 -18.5t-19 -7.5t-18.5 7.5t-7.5 18.5v314q0 27 -8.5 49t-22.5 37.5t-33 24t-40 8.5h-168v-433q0 -11 -8 -18.5t-19 -7.5t-18.5 7.5t-7.5 18.5v639z
" />
    <glyph glyph-name="i" unicode="i" horiz-adv-x="153" 
d="M50 473q0 11 7 19t19 8q11 0 19 -8t8 -19v-447q0 -11 -8 -18.5t-19 -7.5q-12 0 -19 7.5t-7 18.5v447zM50 665q0 12 7 19.5t19 7.5q11 0 19 -7.5t8 -19.5v-19q0 -11 -8 -18.5t-19 -7.5q-12 0 -19 7.5t-7 18.5v19z" />
    <glyph glyph-name="j" unicode="j" horiz-adv-x="251" 
d="M148 473q0 11 7 19t19 8q11 0 19 -8t8 -19v-414q0 -44 -9.5 -80.5t-36.5 -75.5l-56 -81q-4 -7 -10.5 -9t-12.5 -2q-26 0 -26 26q0 7 5 17l54 77q23 32 31 63t8 66v413zM148 665q0 12 7 19.5t19 7.5q11 0 19 -7.5t8 -19.5v-19q0 -11 -8 -18.5t-19 -7.5q-12 0 -19 7.5
t-7 18.5v19z" />
    <glyph glyph-name="k" unicode="k" horiz-adv-x="457" 
d="M402 44q5 -6 5 -17t-7.5 -19t-18.5 -8q-13 0 -22 11l-170 232q-2 1 -4 2.5t-3 1.5h-78v-218q0 -13 -8 -21t-19 -8q-12 0 -19.5 8t-7.5 19v638q0 12 7.5 19.5t19.5 7.5q11 0 19 -7.5t8 -19.5v-366h77q3 0 5 2l156 188q9 11 21 11t19.5 -8t7.5 -19q0 -10 -5 -15l-154 -185z
" />
    <glyph glyph-name="l" unicode="l" horiz-adv-x="154" 
d="M50 665q0 12 7.5 19.5t19.5 7.5q11 0 19 -7.5t8 -21.5v-634q0 -13 -8 -21t-19 -8q-12 0 -19.5 8t-7.5 19v638z" />
    <glyph glyph-name="m" unicode="m" horiz-adv-x="755" 
d="M103 459v-430q0 -13 -8 -21t-19 -8q-12 0 -19 8t-7 19v439q0 17 11.5 30t30.5 13h456q31 0 59.5 -11t50 -32.5t34.5 -52.5t13 -71v-315q0 -11 -8 -19t-19 -8q-12 0 -19 8t-7 19v315q0 26 -8.5 47.5t-22.5 37t-33 24t-40 8.5h-144v-430q0 -13 -8 -21t-19 -8q-12 0 -19 8
t-7 19v432h-248z" />
    <glyph glyph-name="n" unicode="n" horiz-adv-x="478" 
d="M375 342q0 26 -8.5 47.5t-22.5 37t-33 24t-40 8.5h-168v-430q0 -13 -8 -21t-19 -8t-18.5 8t-7.5 19v439q0 17 11.5 30t30.5 13h179q31 0 59.5 -11t50.5 -32.5t34.5 -52.5t12.5 -71v-315q0 -11 -8 -19t-19 -8t-18.5 8t-7.5 19v315z" />
    <glyph glyph-name="o" unicode="o" horiz-adv-x="494" 
d="M217 -6q-36 0 -66.5 12.5t-53 35.5t-35 55.5t-12.5 72.5v152q0 40 12.5 74t34.5 59t53 39t67 14h61q36 0 66.5 -14t52.5 -39t34.5 -59t12.5 -74v-152q0 -40 -12.5 -72.5t-35 -55.5t-53 -35.5t-65.5 -12.5h-61zM278 44q24 0 45 10t36 27t24 40t9 49v152q0 26 -9 50.5
t-24 43.5t-36 30.5t-45 11.5h-61q-24 0 -45 -11.5t-36.5 -30.5t-24 -43.5t-8.5 -50.5v-152q0 -26 8.5 -49t24 -40t36.5 -27t45 -10h61z" />
    <glyph glyph-name="p" unicode="p" horiz-adv-x="476" 
d="M50 466q0 17 12.5 30t29.5 13h175q44 0 74.5 -19.5t49 -48t27 -61.5t8.5 -60v-154q0 -39 -12.5 -70t-34.5 -52.5t-50.5 -32.5t-59.5 -11h-166v-157q0 -11 -8 -19t-19 -8t-18.5 8t-7.5 19v623zM103 50h166q21 0 40 8.5t33 23.5t22.5 36.5t8.5 47.5v151q0 63 -30 101
t-76 38h-164v-406z" />
    <glyph glyph-name="q" unicode="q" horiz-adv-x="476" 
d="M426 -157q0 -11 -8 -19t-18 -8q-11 0 -19 8t-8 19v157h-166q-32 0 -60 11t-50 32.5t-34.5 52.5t-12.5 70v154q0 27 8.5 60t27 61.5t49 48t74.5 19.5h175q17 0 29.5 -13t12.5 -30v-623zM373 456h-164q-46 0 -76 -38t-30 -101v-151q0 -26 8.5 -47.5t22.5 -36.5t33 -23.5
t40 -8.5h166v406z" />
    <glyph glyph-name="r" unicode="r" horiz-adv-x="353" 
d="M50 482q0 11 7 19t19 8q11 0 19 -8t8 -19v-20q47 47 142 47h31q12 0 19.5 -7t7.5 -18t-7 -18t-18 -7h-33q-73 0 -107.5 -39t-34.5 -108v-286q0 -11 -8 -18.5t-19 -7.5q-12 0 -19 7.5t-7 18.5v456z" />
    <glyph glyph-name="s" unicode="s" horiz-adv-x="469" 
d="M65 25q0 11 7 18t18 7h141q61 0 97 20.5t36 73.5q0 36 -28 58t-80 29l-43 5q-77 8 -120 37t-43 97q0 37 14 63.5t37 43t54 24t65 7.5h153q12 0 19.5 -7t7.5 -18t-7 -18t-18 -7h-155q-49 0 -82 -19.5t-33 -66.5q0 -42 29 -59.5t93 -25.5l38 -5q72 -10 113 -42t41 -95
q0 -42 -14 -69.5t-38.5 -44.5t-59 -24t-76.5 -7h-141q-11 0 -18 7t-7 18z" />
    <glyph glyph-name="t" unicode="t" horiz-adv-x="393" 
d="M129 583q0 11 7.5 19t18.5 8t19 -8t8 -19v-82h133q13 0 20.5 -8t7.5 -19t-7.5 -18.5t-19.5 -7.5h-134v-282q0 -56 21 -84.5t76 -28.5h37q12 0 19.5 -8t7.5 -19t-7.5 -18.5t-19.5 -7.5h-37q-82 0 -116 42.5t-34 123.5v282h-53q-11 0 -18.5 7.5t-7.5 18.5t7.5 19t18.5 8h53
v82z" />
    <glyph glyph-name="u" unicode="u" horiz-adv-x="478" 
d="M103 166q0 -26 8.5 -47.5t22.5 -36.5t33 -23.5t40 -8.5h168v430q0 11 8 20t19 9t18.5 -8.5t7.5 -18.5v-440q0 -17 -11.5 -29.5t-30.5 -12.5h-179q-32 0 -60 11t-50 32.5t-34.5 52.5t-12.5 70v316q0 10 8 18.5t19 8.5t18.5 -8.5t7.5 -18.5v-316z" />
    <glyph glyph-name="v" unicode="v" horiz-adv-x="490" 
d="M317 52q-7 -23 -27 -37.5t-46 -14.5q-25 0 -45 14.5t-27 37.5l-118 407q-1 2 -2.5 7t-1.5 7q0 11 7.5 19t18.5 8q21 0 26 -19l121 -413q5 -16 21 -16q19 0 22 15l122 415q2 7 9 12.5t16 5.5q11 0 19 -8t8 -19q0 -6 -1 -9z" />
    <glyph glyph-name="w" unicode="w" horiz-adv-x="778" 
d="M530 69q5 -17 22 -17q19 0 24 16l101 412q7 19 25 19q10 0 18 -7.5t8 -18.5q0 -1 -0.5 -3t-0.5 -4l-100 -410q-6 -25 -27 -40.5t-48 -15.5t-46.5 15.5t-26.5 39.5l-92 336l-90 -336q-7 -24 -27 -39.5t-48 -15.5q-26 0 -46.5 16t-26.5 40l-98 409q-1 3 -1 9q0 10 7.5 18
t18.5 8q9 0 16 -6t9 -14l99 -411q5 -17 22 -17q19 0 24 17l110 397q6 22 31 22q26 0 32 -22z" />
    <glyph glyph-name="x" unicode="x" horiz-adv-x="456" 
d="M401 40q5 -7 5 -15q0 -11 -7.5 -18t-18.5 -7q-8 0 -12.5 3t-8.5 8l-131 195q-33 -50 -66.5 -98t-65.5 -97q-9 -11 -21 -11q-11 0 -18 7t-7 18q0 9 5 16l141 209l-141 210q-5 5 -5 14q0 11 7 18.5t18 7.5q12 0 21 -11l132 -195q32 50 65.5 98t65.5 97q9 11 21 11
q11 0 18.5 -7.5t7.5 -18.5q0 -9 -5 -14l-142 -210z" />
    <glyph glyph-name="y" unicode="y" horiz-adv-x="483" 
d="M383 482q3 7 9.5 12.5t14.5 5.5q11 0 18.5 -7.5t7.5 -18.5q0 -4 -1 -7l-212 -671q-2 -7 -8 -12t-16 -5q-11 0 -18 7t-7 18q0 6 1 8l59 189q-16 2 -29 13t-18 26l-133 428q0 1 -0.5 3t-0.5 3q0 11 7 18.5t18 7.5q9 0 15.5 -5t9.5 -12q32 -106 66.5 -213.5t66.5 -212.5
q2 -5 6 -5q8 0 8 4z" />
    <glyph glyph-name="z" unicode="z" horiz-adv-x="456" 
d="M107 51h271q13 0 20.5 -7.5t7.5 -18.5t-7.5 -18t-18.5 -7h-285q-20 0 -32.5 12.5t-12.5 32.5q0 8 3 16t6 13l279 375h-257q-11 0 -18 7t-7 18t7 18.5t18 7.5h266q20 0 33 -13t13 -33q0 -17 -9 -27z" />
    <glyph glyph-name="braceleft" unicode="{" horiz-adv-x="431" 
d="M240 -68h114q13 0 20 -7t7 -18q0 -25 -25 -25h-129q-17 0 -28.5 11.5t-11.5 28.5v246q0 52 -32 85t-80 33q-10 0 -17.5 7.5t-7.5 18.5q0 10 7.5 17.5t18.5 7.5q24 0 44 8.5t35 24.5t23.5 37.5t8.5 47.5v245q0 17 11.5 28.5t28.5 11.5h127q27 0 27 -25q0 -11 -7 -18
t-18 -7h-116v-235q0 -48 -21 -85.5t-55 -57.5q34 -22 55 -59t21 -85v-236z" />
    <glyph glyph-name="bar" unicode="|" horiz-adv-x="154" 
d="M50 665q0 12 7.5 19.5t19.5 7.5q11 0 19 -7.5t8 -21.5v-691q0 -13 -8 -21t-19 -8q-12 0 -19.5 8t-7.5 19v695z" />
    <glyph glyph-name="braceright" unicode="}" horiz-adv-x="431" 
d="M191 168q0 48 21 85t55 59q-34 20 -55 57.5t-21 85.5v235h-116q-11 0 -18 7t-7 18q0 25 26 25h127q17 0 29 -11.5t12 -28.5v-245q0 -52 31.5 -85t78.5 -33q12 0 19.5 -7.5t7.5 -17.5q0 -11 -7.5 -18.5t-18.5 -7.5q-24 0 -44 -8.5t-35 -24.5t-23.5 -37.5t-8.5 -47.5v-246
q0 -17 -12 -28.5t-29 -11.5h-128q-25 0 -25 25q0 11 7 18t19 7h115v236z" />
    <glyph glyph-name="asciitilde" unicode="~" horiz-adv-x="590" 
d="M488 275q0 10 7.5 18t18.5 8q10 0 18 -8t8 -18q0 -29 -11.5 -55t-31 -45.5t-46 -31t-55.5 -11.5q-40 0 -73 20t-52 52q-11 20 -32 32.5t-46 12.5q-38 0 -64.5 -26.5t-26.5 -64.5q0 -11 -7.5 -18.5t-18.5 -7.5q-10 0 -18 7.5t-8 18.5q0 30 11.5 56t31 45.5t45.5 30.5
t55 11q39 0 72 -19.5t52 -51.5q12 -21 33 -33.5t46 -12.5q18 0 34.5 7t29.5 19.5t20.5 29t7.5 35.5z" />
    <glyph glyph-name="uni00A0" unicode="&#xa0;" horiz-adv-x="300" 
 />
    <glyph glyph-name="exclamdown" unicode="&#xa1;" horiz-adv-x="153" 
d="M50 312q0 12 7 19.5t19 7.5q11 0 19 -7.5t8 -19.5v-447q0 -11 -8 -18.5t-19 -7.5q-12 0 -19 7.5t-7 18.5v447zM50 505q0 11 7 19t19 8q11 0 19 -8t8 -19v-43q0 -12 -8 -19t-19 -7q-26 0 -26 26v43z" />
    <glyph glyph-name="cent" unicode="&#xa2;" horiz-adv-x="433" 
d="M272 509h86q11 0 18 -7t7 -18q0 -25 -25 -25h-86v-409h86q11 0 18 -7t7 -18t-7 -18t-18 -7h-86v-52q0 -11 -8 -19t-19 -8q-12 0 -19.5 8t-7.5 21v50q-88 6 -128 57t-40 154v94q0 185 168 202v52q0 13 7.5 20.5t19.5 7.5q11 0 19 -7.5t8 -18.5v-52zM102 210
q0 -142 116 -159v406q-61 -8 -88.5 -47t-27.5 -105v-95z" />
    <glyph glyph-name="sterling" unicode="&#xa3;" horiz-adv-x="494" 
d="M50 25q0 11 7 18t18 7h64v310h-40q-12 0 -19.5 7t-7.5 18t7 18t18 7h42v81q0 55 9 90.5t26.5 56t44 28t61.5 7.5h98q12 0 19.5 -7t7.5 -18t-7 -18t-18 -7h-100q-22 0 -38.5 -5.5t-27.5 -20t-16.5 -40.5t-5.5 -66v-81h148q12 0 19.5 -7t7.5 -18t-7 -18t-18 -7h-150v-310
h225q13 0 20 -7t7 -18t-7 -18t-18 -7h-344q-11 0 -18 7t-7 18z" />
    <glyph glyph-name="yen" unicode="&#xa5;" horiz-adv-x="564" 
d="M84 163q-11 2 -18 9t-7 18t7.5 18.5t18.5 7.5h172v91h-173q-11 2 -18 8.5t-7 18.5q0 10 7.5 18t18.5 8h145q-45 73 -88.5 144.5t-87.5 145.5q-2 5 -3 9t-1 6q0 12 7.5 19.5t19.5 7.5q14 0 23 -12l184 -311l180 310q8 13 23 13q12 0 19.5 -7.5t7.5 -19.5q0 -3 -0.5 -6
t-2.5 -7q-45 -77 -87.5 -146t-88.5 -146h145q11 0 18.5 -8t7.5 -19q0 -12 -7.5 -19t-18.5 -7h-170v-91h170q11 0 18.5 -7.5t7.5 -19.5q0 -11 -7.5 -18.5t-18.5 -7.5h-170v-136q0 -11 -7.5 -19t-18.5 -8q-12 0 -19.5 8t-7.5 19v136h-173z" />
    <glyph glyph-name="brokenbar" unicode="&#xa6;" horiz-adv-x="153" 
d="M103 405q-2 -11 -9 -18.5t-18 -7.5t-18.5 7.5t-7.5 19.5v308q0 12 7.5 19t19.5 7q11 0 18.5 -7t7.5 -19v-309zM103 -32q-2 -11 -9 -18.5t-18 -7.5t-18.5 8t-7.5 19v309q0 11 7.5 18.5t19.5 7.5q11 0 18.5 -7.5t7.5 -18.5v-310z" />
    <glyph glyph-name="section" unicode="&#xa7;" horiz-adv-x="469" 
d="M65 -76q0 11 7 18t18 7h141q61 0 97 20.5t36 73.5q0 36 -28 58t-80 29l-43 5q-77 8 -120 37t-43 97q0 40 16.5 66.5t43.5 40.5q-29 15 -44.5 41t-15.5 67q0 37 14 62t37 40t54 21t65 6h153q12 0 19.5 -7t7.5 -18t-7 -18t-18 -7h-155q-49 0 -82 -16t-33 -61q0 -42 29 -60
t93 -26l38 -5q72 -9 113 -41.5t41 -94.5q0 -41 -14 -69t-37 -45q24 -17 37.5 -42t13.5 -59q0 -42 -14 -69.5t-38.5 -44.5t-59 -24t-76.5 -7h-141q-11 0 -18 7t-7 18zM364 258q0 36 -28 58t-80 28l-43 5q-47 -1 -77.5 -18t-30.5 -60q0 -42 29 -59.5t93 -25.5l38 -5
q13 -2 23 -4t19 -4q28 10 42.5 30t14.5 55z" />
    <glyph glyph-name="dieresis" unicode="&#xa8;" horiz-adv-x="317" 
d="M50 665q0 12 7.5 19.5t18.5 7.5q12 0 19.5 -7.5t7.5 -19.5v-26q0 -11 -7.5 -18.5t-19.5 -7.5q-11 0 -18.5 7.5t-7.5 18.5v26zM214 665q0 12 7 19.5t19 7.5q11 0 19 -7.5t8 -19.5v-26q0 -11 -8 -18.5t-19 -7.5q-12 0 -19 7.5t-7 18.5v26z" />
    <glyph glyph-name="copyright" unicode="&#xa9;" horiz-adv-x="611" 
d="M50 427q0 55 19 103.5t53 84.5t81 56.5t102 20.5t102 -20.5t81 -56.5t53.5 -84.5t19.5 -103.5t-19.5 -103.5t-53.5 -84.5t-81 -56.5t-102 -20.5t-102 20.5t-81 56.5t-53 84.5t-19 103.5zM100 427q0 -44 15.5 -83.5t43 -68.5t65 -46t81.5 -17t82 17t65.5 46t43 68.5
t15.5 83.5t-15.5 83t-43 68.5t-65.5 46.5t-82 17t-81.5 -17t-65 -46.5t-43 -68.5t-15.5 -83zM191 426q0 35 4.5 64t17 50t35 32.5t57.5 11.5h55q11 0 18 -7t7 -18t-7 -18t-18 -7h-55q-22 0 -35 -7.5t-19.5 -21t-8 -34t-1.5 -45.5t2.5 -45t9.5 -33.5t19.5 -20.5t32.5 -7h55
q11 0 18 -7t7 -18t-7 -18t-18 -7h-55q-35 0 -57 11.5t-34.5 32t-17.5 49t-5 63.5z" />
    <glyph glyph-name="ordfeminine" unicode="&#xaa;" horiz-adv-x="338" 
d="M236 391v87h-91q-18 0 -30.5 -12.5t-12.5 -29.5q0 -18 12.5 -31.5t30.5 -13.5h91zM145 340q-40 0 -67.5 27.5t-27.5 68.5q0 19 7.5 36.5t20 30t30 20t37.5 7.5h91v32q0 20 -9.5 34t-28.5 14h-105q-26 0 -26 24q0 11 7 18.5t19 7.5h105q41 0 65.5 -27.5t24.5 -69.5v-181
q0 -17 -11.5 -29.5t-28.5 -12.5h-103z" />
    <glyph glyph-name="guillemotleft" unicode="&#xab;" horiz-adv-x="478" 
d="M189 135l-15.5 13t-35.5 30t-40 33.5t-30 24.5q-8 6 -13 15t-5 19q0 12 5.5 22t13.5 17l121 93q7 5 15 5q11 0 18 -7t7 -18q0 -10 -9 -19l-125 -93l124 -97q10 -8 10 -20q0 -10 -7 -17t-18 -7q-8 0 -16 6zM387 135q-26 23 -50 43q-20 17 -40.5 33.5t-30.5 24.5
q-8 6 -13 15t-5 19q0 12 5.5 22t13.5 17l121 93q7 5 15 5q11 0 18 -7t7 -18q0 -10 -9 -19l-125 -93l124 -97q10 -8 10 -20q0 -10 -7 -17t-18 -7q-8 0 -16 6z" />
    <glyph glyph-name="logicalnot" unicode="&#xac;" 
 />
    <glyph glyph-name="registered" unicode="&#xae;" horiz-adv-x="611" 
d="M50 427q0 55 19 103.5t53 84.5t81 56.5t102 20.5t102 -20.5t81 -56.5t53.5 -84.5t19.5 -103.5t-19.5 -103.5t-53.5 -84.5t-81 -56.5t-102 -20.5t-102 20.5t-81 56.5t-53 84.5t-19 103.5zM100 427q0 -44 15.5 -83.5t43 -68.5t65 -46t81.5 -17t82 17t65.5 46t43 68.5
t15.5 83.5t-15.5 83t-43 68.5t-65.5 46.5t-82 17t-81.5 -17t-65 -46.5t-43 -68.5t-15.5 -83zM308 391h-61v-101q0 -11 -7 -18t-18 -7t-18 7t-7 18v257q0 17 12 28.5t29 11.5h57q66 0 93 -21.5t27 -74.5q0 -33 -13 -58t-40 -36q11 -25 23.5 -48t23.5 -48q1 -2 2 -5t1 -6
q0 -11 -7 -18t-18 -7q-13 0 -22 14zM315 441q26 0 38 10.5t12 39.5q0 27 -16.5 36.5t-51.5 9.5h-50v-96h68z" />
    <glyph glyph-name="macron" unicode="&#xaf;" 
 />
    <glyph glyph-name="degree" unicode="&#xb0;" horiz-adv-x="381" 
d="M50 552q0 31 10 57t28.5 44.5t44.5 28.5t57 10q63 0 102 -38.5t39 -101.5t-39 -101.5t-102 -38.5q-31 0 -57 10t-44.5 28.5t-28.5 44t-10 57.5zM102 552q0 -41 24 -65.5t64 -24.5q41 0 66 24.5t25 65.5t-25 65.5t-66 24.5q-40 0 -64 -24.5t-24 -65.5z" />
    <glyph glyph-name="plusminus" unicode="&#xb1;" horiz-adv-x="530" 
d="M288 205q-2 -11 -9 -18.5t-18 -7.5q-10 0 -18 7.5t-8 19.5v110h-160q-11 2 -18 9t-7 18t7.5 18.5t18.5 7.5h159v108q2 11 9.5 18t18.5 7t18 -6.5t7 -17.5v-109h166q12 0 19 -7.5t7 -19.5q0 -11 -7 -18.5t-19 -7.5h-166v-111zM75 77q-11 2 -18 8.5t-7 18.5q0 10 7.5 18
t18.5 8h378q12 0 19 -8t7 -19q0 -26 -26 -26h-379z" />
    <glyph glyph-name="twosuperior" unicode="&#xb2;" horiz-adv-x="334" 
d="M176 437q17 16 30 33t13 42v13q0 23 -17.5 34t-40.5 11h-82q-10 0 -18 8t-8 18t8 18t18 8h82q47 0 78 -25t31 -72v-13q0 -40 -16 -64.5t-40 -47.5l-78 -73h122q11 0 18.5 -8.5t7.5 -17.5q0 -11 -8 -18.5t-18 -7.5h-179q-11 0 -20 9t-9 21q0 8 9 22z" />
    <glyph glyph-name="threesuperior" unicode="&#xb3;" horiz-adv-x="322" 
d="M89 455q0 9 7 17t19 8h64q17 0 29 11.5t12 31.5q0 21 -12.5 34.5t-31.5 13.5h-99q-11 0 -19 8t-8 19q0 8 8 16.5t19 8.5h99q42 0 69 -28.5t27 -71.5q0 -22 -8.5 -40t-22.5 -30q14 -14 22.5 -34t8.5 -43q0 -45 -27.5 -72.5t-68.5 -27.5h-99q-11 0 -19 7.5t-8 19.5
q0 8 8 16.5t19 8.5h99q18 0 31 12.5t13 35.5t-12.5 37.5t-31.5 14.5h-60q-13 0 -20 7.5t-7 19.5z" />
    <glyph glyph-name="acute" unicode="&#xb4;" horiz-adv-x="309" 
d="M88 546q-5 -4 -13 -4q-15 0 -23 17q-2 3 -2 9q0 17 16 23l157 75q4 2 10 2q16 0 24 -14q2 -4 2 -11q0 -15 -14 -24z" />
    <glyph glyph-name="mu" unicode="&#xb5;" horiz-adv-x="478" 
d="M50 482q0 10 8 18.5t19 8.5t19 -8.5t8 -18.5v-321q0 -25 8.5 -45.5t23 -35t33 -22.5t39.5 -8h167v430q0 11 8 20t19 9t18.5 -8.5t7.5 -18.5v-440q0 -17 -11.5 -29.5t-30.5 -12.5h-179q-29 0 -55.5 9t-47.5 28v-249q0 -13 -8 -20.5t-19 -7.5t-19 7.5t-8 19.5v695z" />
    <glyph glyph-name="mu" unicode="&#x3bc;" horiz-adv-x="478" 
d="M50 482q0 10 8 18.5t19 8.5t19 -8.5t8 -18.5v-321q0 -25 8.5 -45.5t23 -35t33 -22.5t39.5 -8h167v430q0 11 8 20t19 9t18.5 -8.5t7.5 -18.5v-440q0 -17 -11.5 -29.5t-30.5 -12.5h-179q-29 0 -55.5 9t-47.5 28v-249q0 -13 -8 -20.5t-19 -7.5t-19 7.5t-8 19.5v695z" />
    <glyph glyph-name="paragraph" unicode="&#xb6;" horiz-adv-x="567" 
d="M311 -131q0 -11 -7.5 -19t-18.5 -8t-18.5 8t-7.5 19v392h-52q-32 0 -60 11t-50 32.5t-34.5 52.5t-12.5 71q0 29 8.5 62.5t27 62t49 47.5t74.5 19h279q14 0 21.5 -7.5t7.5 -19.5q0 -11 -7.5 -19t-19.5 -8h-55v-694q0 -13 -8 -21t-19 -8q-12 0 -19.5 8t-7.5 19v696h-70
v-696z" />
    <glyph glyph-name="periodcentered" unicode="&#xb7;" horiz-adv-x="157" 
d="M50 330q0 11 8 20t21 9q11 0 19.5 -9t8.5 -20v-37q0 -14 -8.5 -22.5t-19.5 -8.5q-13 0 -21 8.5t-8 20.5v39z" />
    <glyph glyph-name="cedilla" unicode="&#xb8;" horiz-adv-x="220" 
d="M118 -93q0 11 -1.5 15.5t-8.5 5.5h-4q-16 0 -26 10t-10 26v65h51v-55q29 -3 40 -17.5t11 -49.5q0 -41 -14 -56t-55 -15h-26q-25 0 -25 23q0 10 6.5 16.5t16.5 6.5h27q13 0 15.5 5t2.5 20z" />
    <glyph glyph-name="onesuperior" unicode="&#xb9;" horiz-adv-x="244" 
d="M140 616q5 2 10.5 4t9.5 2q14 0 24 -9t10 -25v-285q0 -12 -8 -19.5t-19 -7.5q-10 0 -18 7.5t-8 18.5v252q-13 -9 -25.5 -16.5t-24.5 -16.5q-8 -6 -14 -6q-12 0 -19.5 8t-7.5 18q0 14 11 22z" />
    <glyph glyph-name="ordmasculine" unicode="&#xba;" horiz-adv-x="370" 
d="M186 660q34 0 59.5 -7.5t42 -26t24.5 -49t8 -75.5q0 -46 -8 -77t-24.5 -50t-42 -27t-59.5 -8t-59.5 8t-42.5 27t-25.5 50t-8.5 77q0 45 8.5 75.5t25.5 49t42.5 26t59.5 7.5zM186 392q21 0 36 4.5t24.5 16.5t14 33.5t4.5 55.5q0 33 -4.5 53.5t-14 32t-24.5 15.5t-36 4
t-36.5 -4t-25.5 -15.5t-14.5 -32t-4.5 -53.5q0 -34 4.5 -55.5t14.5 -33.5t25.5 -16.5t36.5 -4.5z" />
    <glyph glyph-name="guillemotright" unicode="&#xbb;" horiz-adv-x="478" 
d="M289 135q-4 -2 -7.5 -4t-8.5 -2q-11 0 -18 7t-7 17q0 12 10 20l114 96q-9 7 -28 22.5t-39 31.5q-23 18 -48 40q-9 9 -9 19q0 11 7 18t18 7q3 0 7.5 -1.5t6.5 -3.5l122 -93q8 -7 13.5 -17t5.5 -22q0 -10 -5 -19t-13 -15q-11 -8 -31 -24.5t-40 -33.5q-24 -20 -50 -43z
M91 135q-4 -2 -7.5 -4t-8.5 -2q-11 0 -18 7t-7 17q0 12 10 20l114 96q-9 7 -28 22.5t-39 31.5q-23 18 -48 40q-9 9 -9 19q0 11 7 18t18 7q3 0 7.5 -1.5t6.5 -3.5l122 -93q8 -7 13.5 -17t5.5 -22q0 -10 -5 -19t-13 -15q-11 -8 -31 -24.5t-40 -33.5q-24 -20 -50 -43z" />
    <glyph glyph-name="onequarter" unicode="&#xbc;" horiz-adv-x="651" 
d="M394 65q-20 0 -33.5 13.5t-13.5 33.5q0 4 1 9t3 10l79 198q2 7 9.5 12.5t15.5 5.5q11 0 19 -6.5t8 -18.5q0 -5 -1 -8l-81 -197h97v58q0 11 7.5 19t18.5 8t19 -8t8 -18v-59h24q11 0 19 -7t8 -19q0 -11 -8 -18.5t-19 -7.5h-24v-38q0 -11 -8 -19t-19 -8t-18.5 7.5t-7.5 18.5
v39h-103zM140 616q5 2 10.5 4t9.5 2q15 0 24.5 -9t9.5 -25v-285q0 -12 -8 -19.5t-19 -7.5q-10 0 -18 7.5t-8 18.5v252q-13 -9 -25.5 -16.5t-24.5 -16.5q-8 -6 -14 -6q-12 0 -19.5 8t-7.5 18q0 3 2 7t11 12t27 21t50 35zM199 16q-4 -5 -10.5 -10.5t-13.5 -5.5t-11 3
q-16 6 -16 25q0 3 1 6.5t3 8.5l252 563q8 18 25 18q2 0 5 -1t5 -2q16 -6 16 -24q0 -7 -2 -11z" />
    <glyph glyph-name="onehalf" unicode="&#xbd;" horiz-adv-x="689" 
d="M140 616q5 2 11 4t10 2q14 0 23.5 -9t9.5 -25v-285q0 -12 -7.5 -19.5t-19.5 -7.5q-10 0 -18 7.5t-8 18.5v252q-13 -9 -25 -16.5t-25 -16.5q-6 -6 -14 -6q-11 0 -19 8t-8 18q0 13 12 22zM531 162q17 16 29.5 33t12.5 42v13q0 23 -17.5 34t-40.5 11h-81q-11 0 -18.5 8
t-7.5 18t7.5 18t18.5 8h81q47 0 78 -25t31 -72v-13q0 -40 -16 -64.5t-40 -47.5l-78 -73h123q10 0 18 -8.5t8 -17.5q0 -11 -8.5 -18.5t-17.5 -7.5h-179q-12 0 -21 9t-9 21q0 5 3 10.5t7 11.5zM199 16q-4 -5 -10 -10.5t-14 -5.5q-7 0 -10 3q-17 6 -17 25q0 3 1 6.5t3 8.5
l252 563q10 18 25 18q2 0 5.5 -1t5.5 -2q16 -6 16 -24q0 -3 -1 -6t-2 -5z" />
    <glyph glyph-name="threequarters" unicode="&#xbe;" horiz-adv-x="713" 
d="M89 455q0 9 7 17t19 8h64q17 0 29 11.5t12 31.5q0 21 -12.5 34.5t-31.5 13.5h-99q-11 0 -19 8t-8 19q0 8 8 16.5t19 8.5h99q42 0 68.5 -28.5t26.5 -71.5q0 -45 -30 -70q14 -14 22 -34t8 -43q0 -45 -27 -72.5t-68 -27.5h-99q-11 0 -19 7.5t-8 19.5q0 8 8 16.5t19 8.5h99
q18 0 31 12.5t13 35.5t-12.5 37.5t-31.5 14.5h-60q-13 0 -20 7.5t-7 19.5zM458 109q1 1 1 2zM260 16q-4 -5 -10 -10.5t-14 -5.5q-7 0 -11 3q-16 6 -16 25q0 3 1 6.5t3 8.5l252 563q10 18 25 18q2 0 5 -1t5 -2q17 -6 17 -24q0 -3 -1 -6t-2 -5zM456 65q-20 0 -33.5 13.5
t-13.5 33.5q0 4 1 9t3 10l79 198q2 7 9.5 12.5t15.5 5.5q11 0 19 -6.5t8 -18.5q0 -5 -1 -8l-81 -197h97v58q0 11 7.5 19t18.5 8t19 -8t8 -18v-59h24q11 0 19 -7t8 -19q0 -11 -8 -18.5t-19 -7.5h-24v-38q0 -11 -8 -19t-19 -8t-18.5 7.5t-7.5 18.5v39h-103z" />
    <glyph glyph-name="questiondown" unicode="&#xbf;" horiz-adv-x="456" 
d="M284 291q0 -20 -4.5 -35.5t-12 -28.5t-18.5 -24t-24 -23l-63 -58q-56 -52 -56 -110t34 -88.5t103 -30.5h135q28 0 28 -26q0 -10 -7.5 -18t-18.5 -8h-137q-91 0 -142 43t-51 128q0 45 19 79t57 69l62 55q20 18 32 37t12 39v22q0 14 7.5 21t18.5 7q26 0 26 -26v-24z
M286 464q0 -11 -8.5 -19t-20.5 -8q-11 0 -19 8t-8 19v40q0 13 8 21.5t19 8.5q12 0 20.5 -8.5t8.5 -19.5v-42z" />
    <glyph glyph-name="Agrave" unicode="&#xc0;" horiz-adv-x="628" 
d="M340 625q-4 8 -11 14t-15 6t-15 -6.5t-11 -13.5q-26 -88 -54.5 -181.5t-55.5 -181.5h272zM577 32q0 -1 0.5 -3t0.5 -3q0 -10 -8 -18t-19 -8q-8 0 -15 6t-10 12l-61 191h-304l-58 -191q-3 -7 -10.5 -12.5t-16.5 -5.5q-10 0 -18 8t-8 18q0 6 1 9q45 152 91.5 303t92.5 304
q8 26 29.5 42t49.5 16q29 0 50 -16t29 -42zM221 826q-5 4 -9 10t-4 14q0 7 2 11q7 15 24 15l12 -3l7 -3q36 -17 75.5 -36.5t74.5 -35.5q16 -8 16 -24q0 -2 -0.5 -4t-2.5 -7q-8 -15 -23 -15q-7 0 -12 4z" />
    <glyph glyph-name="Aacute" unicode="&#xc1;" horiz-adv-x="628" 
d="M340 625q-4 8 -11 14t-15 6t-15 -6.5t-11 -13.5q-26 -88 -54.5 -181.5t-55.5 -181.5h272zM577 32q0 -1 0.5 -3t0.5 -3q0 -10 -8 -18t-19 -8q-8 0 -15 6t-10 12l-61 191h-304l-58 -191q-3 -7 -10.5 -12.5t-16.5 -5.5q-10 0 -18 8t-8 18q0 6 1 9q45 152 91.5 303t92.5 304
q8 26 29.5 42t49.5 16q29 0 50 -16t29 -42zM246 754q-5 -4 -13 -4q-16 0 -23 17q-2 4 -2 9q0 16 15 24l160 76q4 2 9 2q17 0 25 -15q2 -4 2 -11q0 -15 -14 -24z" />
    <glyph glyph-name="Acircumflex" unicode="&#xc2;" horiz-adv-x="628" 
d="M340 625q-4 8 -11 14t-15 6t-15 -6.5t-11 -13.5q-26 -88 -54.5 -181.5t-55.5 -181.5h272zM577 32q0 -1 0.5 -3t0.5 -3q0 -10 -8 -18t-19 -8q-8 0 -15 6t-10 12l-61 191h-304l-58 -191q-3 -7 -10.5 -12.5t-16.5 -5.5q-10 0 -18 8t-8 18q0 6 1 9q45 152 91.5 303t92.5 304
q8 26 29.5 42t49.5 16q29 0 50 -16t29 -42zM429 790q2 -4 4 -7.5t2 -8.5q0 -11 -7 -18t-17 -7q-14 0 -21 9l-76 82q-8 -8 -21 -21.5t-26 -27.5q-15 -16 -32 -34q-8 -8 -18 -8q-11 0 -18 7t-7 18q0 10 6 16l77 86q7 8 17 13.5t22 5.5q10 0 19 -5t15 -12z" />
    <glyph glyph-name="Atilde" unicode="&#xc3;" horiz-adv-x="628" 
d="M340 625q-4 8 -11 14t-15 6t-15 -6.5t-11 -13.5q-26 -88 -54.5 -181.5t-55.5 -181.5h272zM577 32q0 -1 0.5 -3t0.5 -3q0 -10 -8 -18t-19 -8q-8 0 -15 6t-10 12l-61 191h-304l-58 -191q-3 -7 -10.5 -12.5t-16.5 -5.5q-10 0 -18 8t-8 18q0 6 1 9q45 152 91.5 303t92.5 304
q8 26 29.5 42t49.5 16q29 0 50 -16t29 -42zM172 811q20 18 40.5 30t42.5 12q27 0 46.5 -10t34.5 -21l3 -2l5 -4q10 -6 18 -10t18 -4q6 0 17 8.5t22 17.5q8 8 18 8q11 0 19.5 -9t8.5 -20q0 -9 -7 -18q-19 -17 -39 -30.5t-39 -13.5q-26 0 -44 9.5t-33 20.5q-13 9 -24 16t-25 7
q-10 0 -22 -8.5t-23 -18.5q-9 -7 -20 -7t-19 7.5t-8 19.5q0 7 2.5 11t7.5 9z" />
    <glyph glyph-name="Adieresis" unicode="&#xc4;" horiz-adv-x="628" 
d="M340 625q-4 8 -11 14t-15 6t-15 -6.5t-11 -13.5q-26 -88 -54.5 -181.5t-55.5 -181.5h272zM577 32q0 -1 0.5 -3t0.5 -3q0 -10 -8 -18t-19 -8q-8 0 -15 6t-10 12l-61 191h-304l-58 -191q-3 -7 -10.5 -12.5t-16.5 -5.5q-10 0 -18 8t-8 18q0 6 1 9q45 152 91.5 303t92.5 304
q8 26 29.5 42t49.5 16q29 0 50 -16t29 -42zM205 803q0 11 7 19t19 8t19.5 -8t7.5 -19v-27q0 -11 -7.5 -18.5t-19.5 -7.5t-19 7.5t-7 18.5v27zM370 803q0 11 7.5 19t18.5 8q12 0 20 -8t8 -19v-27q0 -11 -8 -18.5t-20 -7.5q-11 0 -18.5 7.5t-7.5 18.5v27z" />
    <glyph glyph-name="Aring" unicode="&#xc5;" horiz-adv-x="628" 
d="M340 625q-4 8 -11 14t-15 6t-15 -6.5t-11 -13.5q-26 -88 -54.5 -181.5t-55.5 -181.5h272zM577 32q0 -1 0.5 -3t0.5 -3q0 -10 -8 -18t-19 -8q-8 0 -15 6t-10 12l-61 191h-304l-58 -191q-3 -7 -10.5 -12.5t-16.5 -5.5q-10 0 -18 8t-8 18q0 6 1 9q45 152 91.5 303t92.5 304
q8 26 29.5 42t49.5 16q29 0 50 -16t29 -42zM217 837q0 40 27.5 68t69.5 28q40 0 68 -28t28 -68q0 -42 -28 -69.5t-68 -27.5q-42 0 -69.5 27.5t-27.5 69.5zM265 837q0 -22 14 -36.5t36 -14.5q20 0 34 14.5t14 36.5q0 20 -14 34.5t-34 14.5q-22 0 -36 -14.5t-14 -34.5z" />
    <glyph glyph-name="AE" unicode="&#xc6;" horiz-adv-x="771" 
d="M103 18q-3 -7 -10.5 -12.5t-16.5 -5.5q-10 0 -18 8t-8 18q0 6 1 9q45 152 91.5 303t92.5 304q8 26 29.5 42t49.5 16h378q13 0 21 -8t8 -19q0 -12 -8 -19.5t-19 -7.5h-336v-255h276q13 0 21 -8t8 -19q0 -12 -8 -20t-19 -8h-278v-282h334q13 0 21 -7.5t8 -19.5
q0 -11 -8 -19t-19 -8h-345q-20 0 -32.5 12.5t-12.5 32.5v164h-142zM178 262h126v380q-5 -3 -9 -7.5t-7 -9.5z" />
    <glyph glyph-name="Ccedilla" unicode="&#xc7;" horiz-adv-x="533" 
d="M244 -73q-16 0 -26.5 10.5t-10.5 26.5v46q-78 20 -117.5 79t-39.5 147v222q0 66 16 112t46.5 75t74 42t98.5 13h172q11 0 18.5 -8t7.5 -18q0 -11 -7.5 -19t-18.5 -8h-172q-84 0 -132 -44t-48 -145v-222q0 -40 11.5 -73.5t34.5 -58t56.5 -38.5t77.5 -14h170q12 0 20 -7.5
t8 -18.5q0 -10 -7.5 -18t-18.5 -8h-198v-26q29 -3 40 -18t11 -50q0 -41 -14 -56.5t-55 -15.5h-26q-25 0 -25 23t23 23h27q13 0 15.5 5.5t2.5 20.5q0 11 -1.5 15.5t-7.5 5.5h-5z" />
    <glyph glyph-name="Egrave" unicode="&#xc8;" horiz-adv-x="517" 
d="M50 655q0 20 13 32.5t32 12.5h343q14 0 21.5 -8t7.5 -19q0 -12 -7.5 -19.5t-19.5 -7.5h-335v-255h275q13 0 21 -8t8 -19q0 -12 -8 -20t-19 -8h-277v-282h333q14 0 21.5 -7.5t7.5 -19.5q0 -11 -7.5 -19t-19.5 -8h-345q-19 0 -32 12.5t-13 32.5v610zM146 828q-14 9 -14 24
q0 7 2 11q7 15 24 15l12 -3q38 -18 79 -38t78 -37q16 -8 16 -24q0 -2 -0.5 -4t-2.5 -7q-8 -15 -22 -15q-8 0 -13 4z" />
    <glyph glyph-name="Eacute" unicode="&#xc9;" horiz-adv-x="517" 
d="M50 655q0 20 13 32.5t32 12.5h343q14 0 21.5 -8t7.5 -19q0 -12 -7.5 -19.5t-19.5 -7.5h-335v-255h275q13 0 21 -8t8 -19q0 -12 -8 -20t-19 -8h-277v-282h333q14 0 21.5 -7.5t7.5 -19.5q0 -11 -7.5 -19t-19.5 -8h-345q-19 0 -32 12.5t-13 32.5v610zM170 753q-5 -4 -13 -4
q-15 0 -23 17q-2 4 -2 9q0 16 16 24l159 76q4 2 10 2q16 0 24 -15q2 -4 2 -11q0 -15 -14 -24z" />
    <glyph glyph-name="Ecircumflex" unicode="&#xca;" horiz-adv-x="517" 
d="M50 655q0 20 13 32.5t32 12.5h343q14 0 21.5 -8t7.5 -19q0 -12 -7.5 -19.5t-19.5 -7.5h-335v-255h275q13 0 21 -8t8 -19q0 -12 -8 -20t-19 -8h-277v-282h333q14 0 21.5 -7.5t7.5 -19.5q0 -11 -7.5 -19t-19.5 -8h-345q-19 0 -32 12.5t-13 32.5v610zM354 790q2 -4 4 -7.5
t2 -8.5q0 -11 -7.5 -18t-17.5 -7q-13 0 -20 9l-77 82q-8 -8 -21 -21.5t-26 -27.5q-15 -16 -32 -34q-8 -8 -17 -8q-11 0 -18 7t-7 18q0 4 1 8.5t4 7.5l77 86q7 8 17 13.5t22 5.5q11 0 19.5 -5t14.5 -12z" />
    <glyph glyph-name="Edieresis" unicode="&#xcb;" horiz-adv-x="517" 
d="M50 655q0 20 13 32.5t32 12.5h343q14 0 21.5 -8t7.5 -19q0 -12 -7.5 -19.5t-19.5 -7.5h-335v-255h275q13 0 21 -8t8 -19q0 -12 -8 -20t-19 -8h-277v-282h333q14 0 21.5 -7.5t7.5 -19.5q0 -11 -7.5 -19t-19.5 -8h-345q-19 0 -32 12.5t-13 32.5v610zM129 803q0 11 7.5 19
t18.5 8q12 0 20 -8t8 -19v-27q0 -11 -8 -18.5t-20 -7.5q-11 0 -18.5 7.5t-7.5 18.5v27zM294 803q0 11 7.5 19t19.5 8q11 0 19 -8t8 -19v-27q0 -11 -8 -18.5t-19 -7.5q-12 0 -19.5 7.5t-7.5 18.5v27z" />
    <glyph glyph-name="Igrave" unicode="&#xcc;" horiz-adv-x="311" 
d="M128 673q0 11 7.5 19t19.5 8q11 0 19 -8t8 -21v-642q0 -13 -8 -21t-19 -8q-12 0 -19.5 8t-7.5 19v646zM64 826q-14 9 -14 24q0 7 2 11q7 15 24 15l12 -3l7 -3q36 -17 75.5 -36.5t74.5 -35.5q16 -8 16 -24q0 -2 -0.5 -4t-2.5 -7q-8 -15 -22 -15q-8 0 -13 4z" />
    <glyph glyph-name="Iacute" unicode="&#xcd;" horiz-adv-x="311" 
d="M128 673q0 11 7.5 19t19.5 8q11 0 19 -8t8 -21v-642q0 -13 -8 -21t-19 -8q-12 0 -19.5 8t-7.5 19v646zM88 754q-5 -4 -13 -4q-15 0 -23 17q-2 4 -2 9q0 16 15 24l160 76q4 2 10 2q16 0 24 -15q2 -4 2 -11q0 -15 -14 -24z" />
    <glyph glyph-name="Icircumflex" unicode="&#xce;" horiz-adv-x="343" 
d="M144 673q0 11 8 19t20 8q11 0 19 -8t8 -21v-642q0 -13 -8 -21t-19 -8q-12 0 -20 8t-8 19v646zM287 789q2 -4 4 -7.5t2 -8.5q0 -11 -7 -18t-17 -7q-14 0 -20 9l-77 82q-8 -8 -21 -21.5t-26 -27.5q-15 -16 -32 -34q-8 -8 -18 -8q-11 0 -18 7t-7 18q0 10 6 16l77 86
q7 8 17 13.5t22 5.5q10 0 19 -5t15 -12z" />
    <glyph glyph-name="Idieresis" unicode="&#xcf;" horiz-adv-x="319" 
d="M132 673q0 11 7.5 19t19.5 8q11 0 19 -8t8 -21v-642q0 -13 -8 -21t-19 -8q-12 0 -19.5 8t-7.5 19v646zM50 801q0 11 7.5 19t18.5 8q12 0 19.5 -8t7.5 -19v-27q0 -11 -7.5 -18.5t-19.5 -7.5q-11 0 -18.5 7.5t-7.5 18.5v27zM215 801q0 11 7.5 19t19.5 8q11 0 19 -8t8 -19
v-27q0 -11 -8 -18.5t-19 -7.5q-12 0 -19.5 7.5t-7.5 18.5v27z" />
    <glyph glyph-name="Eth" unicode="&#xd0;" horiz-adv-x="737" 
d="M50 341q0 11 8 18.5t18 7.5h136v288q0 20 13 32.5t32 12.5h195q54 0 97.5 -13t74 -42t47 -75t16.5 -112v-222q0 -53 -15.5 -96.5t-45.5 -74.5t-74 -48t-100 -17h-195q-19 0 -32 12.5t-13 32.5v270h-134q-12 0 -20 8t-8 18zM631 458q0 101 -48 145t-131 44h-185v-280h202
q13 0 20.5 -7.5t7.5 -18.5q0 -10 -7.5 -18t-18.5 -8h-204v-263h185q43 0 76.5 14t56.5 38.5t34.5 58t11.5 73.5v222z" />
    <glyph glyph-name="Ntilde" unicode="&#xd1;" horiz-adv-x="606" 
d="M501 673q0 11 8 19t19 8q12 0 20 -8t8 -19v-598q0 -32 -21.5 -53.5t-53.5 -21.5q-23 0 -41 12t-27 32l-269 589q-2 5 -7 9t-12 4q-9 0 -15 -6t-6 -15v-598q0 -11 -7.5 -19t-19.5 -8q-11 0 -19 8t-8 19v598q0 32 21.5 53.5t53.5 21.5q23 0 41 -12t27 -32l269 -589
q2 -5 7 -9t12 -4q8 0 13 6t7 15v598zM161 811q20 18 40.5 30t42.5 12q27 0 46.5 -10t34.5 -21l3 -2q14 -9 22.5 -13.5t18.5 -4.5q6 0 17 8.5t22 17.5q8 8 18 8q11 0 19.5 -9t8.5 -20q0 -4 -1.5 -9t-5.5 -9q-19 -17 -39 -30.5t-39 -13.5q-22 0 -42 10t-37 21l-22.5 15
t-23.5 7q-11 0 -23 -8.5t-23 -18.5q-9 -7 -20 -7t-19 7.5t-8 19.5q0 7 2.5 11t7.5 9z" />
    <glyph glyph-name="Ograve" unicode="&#xd2;" horiz-adv-x="616" 
d="M331 700q55 0 98.5 -13t74 -42t46.5 -75t16 -112v-222q0 -53 -15.5 -96.5t-45.5 -74.5t-73.5 -48t-100.5 -17h-46q-56 0 -100 17t-74 48t-45.5 74.5t-15.5 96.5v222q0 66 16.5 112t47 75t74 42t97.5 13h46zM106 236q0 -40 11.5 -73.5t34.5 -58t56 -38.5t77 -14h46
q44 0 77.5 14t56.5 38.5t34.5 58t11.5 73.5v222q0 101 -48 145t-132 44h-46q-83 0 -131 -44t-48 -145v-222zM216 826q-5 4 -9 10t-4 14q0 7 2 11q7 15 24 15l12 -3l7 -3q36 -17 75.5 -36.5t74.5 -35.5q16 -8 16 -24q0 -2 -0.5 -4t-2.5 -7q-8 -15 -23 -15q-7 0 -12 4z" />
    <glyph glyph-name="Oacute" unicode="&#xd3;" horiz-adv-x="616" 
d="M331 700q55 0 98.5 -13t74 -42t46.5 -75t16 -112v-222q0 -53 -15.5 -96.5t-45.5 -74.5t-73.5 -48t-100.5 -17h-46q-56 0 -100 17t-74 48t-45.5 74.5t-15.5 96.5v222q0 66 16.5 112t47 75t74 42t97.5 13h46zM106 236q0 -40 11.5 -73.5t34.5 -58t56 -38.5t77 -14h46
q44 0 77.5 14t56.5 38.5t34.5 58t11.5 73.5v222q0 101 -48 145t-132 44h-46q-83 0 -131 -44t-48 -145v-222zM241 752q-5 -4 -13 -4q-15 0 -23 17q-2 4 -2 9q0 16 15 24l160 76q4 2 9 2q17 0 25 -15q2 -4 2 -11q0 -15 -14 -24z" />
    <glyph glyph-name="Ocircumflex" unicode="&#xd4;" horiz-adv-x="616" 
d="M331 700q55 0 98.5 -13t74 -42t46.5 -75t16 -112v-222q0 -53 -15.5 -96.5t-45.5 -74.5t-73.5 -48t-100.5 -17h-46q-56 0 -100 17t-74 48t-45.5 74.5t-15.5 96.5v222q0 66 16.5 112t47 75t74 42t97.5 13h46zM106 236q0 -40 11.5 -73.5t34.5 -58t56 -38.5t77 -14h46
q44 0 77.5 14t56.5 38.5t34.5 58t11.5 73.5v222q0 101 -48 145t-132 44h-46q-83 0 -131 -44t-48 -145v-222zM424 790q2 -4 4 -7.5t2 -8.5q0 -11 -7 -18t-17 -7q-14 0 -20 9l-77 82q-8 -8 -21 -21.5t-26 -27.5q-15 -16 -32 -34q-8 -8 -18 -8q-11 0 -18 7t-7 18q0 10 6 16
l77 86q7 8 17 13.5t22 5.5q10 0 19 -5t15 -12z" />
    <glyph glyph-name="Otilde" unicode="&#xd5;" horiz-adv-x="616" 
d="M331 700q55 0 98.5 -13t74 -42t46.5 -75t16 -112v-222q0 -53 -15.5 -96.5t-45.5 -74.5t-73.5 -48t-100.5 -17h-46q-56 0 -100 17t-74 48t-45.5 74.5t-15.5 96.5v222q0 66 16.5 112t47 75t74 42t97.5 13h46zM106 236q0 -40 11.5 -73.5t34.5 -58t56 -38.5t77 -14h46
q44 0 77.5 14t56.5 38.5t34.5 58t11.5 73.5v222q0 101 -48 145t-132 44h-46q-83 0 -131 -44t-48 -145v-222zM167 810q20 18 40.5 30t42.5 12q27 0 46.5 -10t34.5 -21l3 -2l5 -4q10 -6 18 -10t18 -4q6 0 17 8.5t22 17.5q8 8 18 8q11 0 19.5 -9t8.5 -20q0 -9 -7 -18
q-19 -17 -39 -30.5t-39 -13.5q-12 0 -25.5 5t-24.5 10.5t-19.5 10.5t-9.5 5q-11 9 -22 15.5t-25 6.5q-10 0 -22 -8.5t-23 -18.5q-9 -7 -20 -7t-19 7.5t-8 19.5q0 7 2.5 11t7.5 9z" />
    <glyph glyph-name="Odieresis" unicode="&#xd6;" horiz-adv-x="616" 
d="M331 700q55 0 98.5 -13t74 -42t46.5 -75t16 -112v-222q0 -53 -15.5 -96.5t-45.5 -74.5t-73.5 -48t-100.5 -17h-46q-56 0 -100 17t-74 48t-45.5 74.5t-15.5 96.5v222q0 66 16.5 112t47 75t74 42t97.5 13h46zM106 236q0 -40 11.5 -73.5t34.5 -58t56 -38.5t77 -14h46
q44 0 77.5 14t56.5 38.5t34.5 58t11.5 73.5v222q0 101 -48 145t-132 44h-46q-83 0 -131 -44t-48 -145v-222zM199 802q0 11 7.5 19t18.5 8q12 0 19.5 -8t7.5 -19v-27q0 -11 -7.5 -18.5t-19.5 -7.5q-11 0 -18.5 7.5t-7.5 18.5v27zM364 802q0 11 7.5 19t18.5 8q12 0 20 -8
t8 -19v-27q0 -11 -8 -18.5t-20 -7.5q-11 0 -18.5 7.5t-7.5 18.5v27z" />
    <glyph glyph-name="multiply" unicode="&#xd7;" horiz-adv-x="459" 
d="M402 115q6 -6 6 -19q0 -10 -6 -17q-5 -5 -10 -6.5t-9 -1.5q-12 0 -20 8l-134 134l-135 -134q-9 -7 -19 -7t-17 7q-8 8 -8 19q0 12 8 19l134 134l-136 136q-6 6 -6 16q0 11 8 21q8 8 18 8q9 0 17 -8l136 -136l135 136q8 8 19 8q10 0 20 -10q6 -8 6 -17q0 -5 -1.5 -10
t-5.5 -8l-136 -136z" />
    <glyph glyph-name="Oslash" unicode="&#xd8;" horiz-adv-x="616" 
d="M331 700q32 0 59 -4t51 -14l37 83q9 19 25 19q2 0 5.5 -1t5.5 -2q16 -6 16 -25q0 -3 -1 -6t-2 -5l-39 -89q36 -29 57 -78t21 -120v-222q0 -53 -15.5 -96.5t-45.5 -74.5t-73.5 -48t-100.5 -17h-46q-23 0 -44.5 2.5t-40.5 9.5l-34 -79q-3 -8 -9.5 -12.5t-14.5 -4.5
q-7 0 -11 3q-17 6 -17 26q0 3 3 11l33 77q-50 30 -75 82t-25 121v222q0 66 16.5 112t47 75t74 42t97.5 13h46zM106 236q0 -48 17.5 -87.5t50.5 -63.5q62 139 122 273.5t123 274.5q-20 8 -41 11t-47 3h-46q-83 0 -131 -44t-48 -145v-222zM331 52q44 0 77.5 14t56.5 38.5
t34.5 58t11.5 73.5v222q0 49 -13 85t-34 59l-242 -542q30 -8 63 -8h46z" />
    <glyph glyph-name="Ugrave" unicode="&#xd9;" horiz-adv-x="579" 
d="M50 674q0 10 7.5 18t18.5 8t18.5 -8t7.5 -18v-473q0 -37 11 -66t29 -48.5t41.5 -29.5t49.5 -10h122q59 0 90.5 42.5t31.5 111.5v471q0 12 7.5 20t18.5 8t18.5 -8t7.5 -18v-473q0 -47 -12 -85t-34.5 -65t-55.5 -42t-74 -15h-119q-37 0 -70.5 13t-58.5 39.5t-40 65
t-15 89.5v473zM198 827q-14 9 -14 24q0 7 2 11q7 15 24 15l12 -3q38 -18 79 -38t78 -37q16 -8 16 -24q0 -2 -0.5 -4t-2.5 -7q-8 -15 -22 -15q-8 0 -13 4z" />
    <glyph glyph-name="Uacute" unicode="&#xda;" horiz-adv-x="579" 
d="M50 674q0 10 7.5 18t18.5 8t18.5 -8t7.5 -18v-473q0 -37 11 -66t29 -48.5t41.5 -29.5t49.5 -10h122q59 0 90.5 42.5t31.5 111.5v471q0 12 7.5 20t18.5 8t18.5 -8t7.5 -18v-473q0 -47 -12 -85t-34.5 -65t-55.5 -42t-74 -15h-119q-37 0 -70.5 13t-58.5 39.5t-40 65
t-15 89.5v473zM222 754q-5 -4 -13 -4q-15 0 -23 17q-2 4 -2 9q0 16 16 24l159 76q4 2 10 2q16 0 24 -15q2 -4 2 -11q0 -15 -14 -24z" />
    <glyph glyph-name="Ucircumflex" unicode="&#xdb;" horiz-adv-x="579" 
d="M50 674q0 10 7.5 18t18.5 8t18.5 -8t7.5 -18v-473q0 -37 11 -66t29 -48.5t41.5 -29.5t49.5 -10h122q59 0 90.5 42.5t31.5 111.5v471q0 12 7.5 20t18.5 8t18.5 -8t7.5 -18v-473q0 -47 -12 -85t-34.5 -65t-55.5 -42t-74 -15h-119q-37 0 -70.5 13t-58.5 39.5t-40 65
t-15 89.5v473zM406 789q2 -4 4 -7.5t2 -8.5q0 -11 -7.5 -18t-17.5 -7q-13 0 -20 9l-77 82q-8 -8 -21 -21.5t-26 -27.5q-15 -16 -32 -34q-8 -8 -17 -8q-11 0 -18.5 7t-7.5 18q0 10 6 16l77 86q7 8 17 13.5t22 5.5q11 0 19.5 -5t14.5 -12z" />
    <glyph glyph-name="Udieresis" unicode="&#xdc;" horiz-adv-x="579" 
d="M50 674q0 10 7.5 18t18.5 8t18.5 -8t7.5 -18v-473q0 -37 11 -66t29 -48.5t41.5 -29.5t49.5 -10h122q59 0 90.5 42.5t31.5 111.5v471q0 12 7.5 20t18.5 8t18.5 -8t7.5 -18v-473q0 -47 -12 -85t-34.5 -65t-55.5 -42t-74 -15h-119q-37 0 -70.5 13t-58.5 39.5t-40 65
t-15 89.5v473zM180 804q0 11 7.5 19t18.5 8q12 0 20 -8t8 -19v-27q0 -11 -8 -18.5t-20 -7.5q-11 0 -18.5 7.5t-7.5 18.5v27zM345 804q0 11 7.5 19t19.5 8q11 0 19 -8t8 -19v-27q0 -11 -8 -18.5t-19 -7.5q-12 0 -19.5 7.5t-7.5 18.5v27z" />
    <glyph glyph-name="Yacute" unicode="&#xdd;" horiz-adv-x="569" 
d="M313 319v-292q0 -11 -7.5 -19t-19.5 -8t-19.5 8t-7.5 19v292l-205 338q-2 5 -3 9t-1 7q0 11 7.5 19t19.5 8q15 0 23 -13l186 -314l183 313q9 14 23 14q12 0 19.5 -8t7.5 -19q0 -4 -0.5 -7t-2.5 -7zM217 751q-5 -4 -13 -4q-15 0 -23 17q-2 4 -2 9q0 16 16 24l159 76
q4 2 10 2q16 0 24 -15q2 -4 2 -11q0 -15 -14 -24z" />
    <glyph glyph-name="Thorn" unicode="&#xde;" horiz-adv-x="565" 
d="M50 673q0 11 7.5 19t19.5 8t19.5 -8t7.5 -19v-92h214q94 0 145.5 -42.5t51.5 -126.5v-94q0 -41 -11.5 -75.5t-36 -60t-61.5 -39.5t-88 -14h-214v-102q0 -11 -7.5 -19t-19.5 -8t-19.5 8t-7.5 19v646zM461 411q0 58 -37 88t-106 30h-214v-347h214q73 0 108 38.5t35 97.5v93
z" />
    <glyph glyph-name="germandbls" unicode="&#xdf;" horiz-adv-x="575" 
d="M153 26q0 10 7.5 18t18.5 8h154q29 0 54.5 11t44.5 29.5t30 44t11 54.5t-11 54.5t-30 45t-44.5 30.5t-54.5 11h-17q-10 0 -18 7.5t-8 18.5q0 10 8 18t18 8q27 0 50.5 10t41 27.5t28 40.5t10.5 50t-10 50t-27.5 40.5t-41 27.5t-50.5 10h-34q-83 0 -130.5 -43.5
t-47.5 -143.5v-424q0 -13 -8.5 -21t-19.5 -8t-19 8t-8 19v426q0 65 16 110.5t46 74t73.5 41.5t97.5 13h34q37 0 70 -14t58 -38.5t39 -57.5t14 -70q0 -49 -20.5 -87t-58.5 -63q48 -23 77 -68.5t29 -102.5q0 -40 -15 -74.5t-41 -60.5t-61 -41t-75 -15h-152q-13 0 -20.5 7.5
t-7.5 18.5z" />
    <glyph glyph-name="agrave" unicode="&#xe0;" horiz-adv-x="471" 
d="M79 484q0 11 7 18t18 7h181q30 0 55 -11t43 -30.5t28 -46.5t10 -58v-323q0 -17 -11.5 -28.5t-28.5 -11.5h-187q-30 0 -56.5 11t-46 30.5t-30.5 45.5t-11 56t11 56t30.5 45.5t46 31t56.5 11.5h174v73q0 42 -22 70.5t-61 28.5h-179q-27 0 -27 25zM368 52v184h-174
q-19 0 -36 -7.5t-29.5 -20t-19.5 -29.5t-7 -36t7 -35.5t19.5 -29t29.5 -19.5t36 -7h174zM161 625q-5 4 -9 10t-4 14q0 7 2 10q7 15 24 15l12 -3q37 -17 77.5 -37t77.5 -37q16 -8 16 -23q0 -2 -0.5 -4.5t-2.5 -7.5q-8 -14 -22 -14q-8 0 -13 4z" />
    <glyph glyph-name="aacute" unicode="&#xe1;" horiz-adv-x="471" 
d="M79 484q0 11 7 18t18 7h181q30 0 55 -11t43 -30.5t28 -46.5t10 -58v-323q0 -17 -11.5 -28.5t-28.5 -11.5h-187q-30 0 -56.5 11t-46 30.5t-30.5 45.5t-11 56t11 56t30.5 45.5t46 31t56.5 11.5h174v73q0 42 -22 70.5t-61 28.5h-179q-27 0 -27 25zM368 52v184h-174
q-19 0 -36 -7.5t-29.5 -20t-19.5 -29.5t-7 -36t7 -35.5t19.5 -29t29.5 -19.5t36 -7h174zM186 553q-5 -4 -13 -4q-14 0 -23 16q-2 4 -2 10q0 15 15 23l158 75q4 2 10 2q16 0 24 -15q2 -3 2 -10q0 -15 -14 -24z" />
    <glyph glyph-name="acircumflex" unicode="&#xe2;" horiz-adv-x="471" 
d="M79 484q0 11 7 18t18 7h181q30 0 55 -11t43 -30.5t28 -46.5t10 -58v-323q0 -17 -11.5 -28.5t-28.5 -11.5h-187q-30 0 -56.5 11t-46 30.5t-30.5 45.5t-11 56t11 56t30.5 45.5t46 31t56.5 11.5h174v73q0 42 -22 70.5t-61 28.5h-179q-27 0 -27 25zM368 52v184h-174
q-19 0 -36 -7.5t-29.5 -20t-19.5 -29.5t-7 -36t7 -35.5t19.5 -29t29.5 -19.5t36 -7h174zM367 588q2 -4 4 -7t2 -8q0 -11 -7.5 -18t-16.5 -7q-12 0 -20 8l-76 81q-8 -8 -20.5 -21t-25.5 -27q-15 -16 -32 -33q-8 -8 -17 -8q-25 0 -25 25q0 8 5 15l76 85q7 8 17 13.5t22 5.5
q10 0 19 -5t14 -12z" />
    <glyph glyph-name="atilde" unicode="&#xe3;" horiz-adv-x="471" 
d="M79 484q0 11 7 18t18 7h181q30 0 55 -11t43 -30.5t28 -46.5t10 -58v-323q0 -17 -11.5 -28.5t-28.5 -11.5h-187q-30 0 -56.5 11t-46 30.5t-30.5 45.5t-11 56t11 56t30.5 45.5t46 31t56.5 11.5h174v73q0 42 -22 70.5t-61 28.5h-179q-27 0 -27 25zM368 52v184h-174
q-19 0 -36 -7.5t-29.5 -20t-19.5 -29.5t-7 -36t7 -35.5t19.5 -29t29.5 -19.5t36 -7h174zM112 613q20 17 40.5 29.5t42.5 12.5q27 0 46 -10t34 -21q11 -8 21.5 -14t21.5 -6q6 0 17 8.5t22 17.5q7 7 18 7t19.5 -8.5t8.5 -19.5q0 -10 -8 -18q-18 -17 -38 -30t-39 -13
q-25 0 -43 9.5t-33 20.5l-4 3q-11 8 -21.5 13.5t-22.5 5.5q-10 0 -22 -8.5t-23 -17.5q-8 -8 -19 -8q-12 0 -19.5 8t-7.5 19q0 7 2.5 11t6.5 9z" />
    <glyph glyph-name="adieresis" unicode="&#xe4;" horiz-adv-x="471" 
d="M79 484q0 11 7 18t18 7h181q30 0 55 -11t43 -30.5t28 -46.5t10 -58v-323q0 -17 -11.5 -28.5t-28.5 -11.5h-187q-30 0 -56.5 11t-46 30.5t-30.5 45.5t-11 56t11 56t30.5 45.5t46 31t56.5 11.5h174v73q0 42 -22 70.5t-61 28.5h-179q-27 0 -27 25zM368 52v184h-174
q-19 0 -36 -7.5t-29.5 -20t-19.5 -29.5t-7 -36t7 -35.5t19.5 -29t29.5 -19.5t36 -7h174zM145 601q0 11 7.5 19t18.5 8t19 -8t8 -19v-26q0 -12 -8 -19t-19 -7t-18.5 7t-7.5 19v26zM309 601q0 11 7 19t19 8q11 0 18.5 -8t7.5 -19v-26q0 -12 -7.5 -19t-18.5 -7q-26 0 -26 26v26
z" />
    <glyph glyph-name="aring" unicode="&#xe5;" horiz-adv-x="471" 
d="M79 484q0 11 7 18t18 7h181q30 0 55 -11t43 -30.5t28 -46.5t10 -58v-323q0 -17 -11.5 -28.5t-28.5 -11.5h-187q-30 0 -56.5 11t-46 30.5t-30.5 45.5t-11 56t11 56t30.5 45.5t46 31t56.5 11.5h174v73q0 42 -22 70.5t-61 28.5h-179q-27 0 -27 25zM368 52v184h-174
q-19 0 -36 -7.5t-29.5 -20t-19.5 -29.5t-7 -36t7 -35.5t19.5 -29t29.5 -19.5t36 -7h174zM158 639q0 40 27 67.5t68 27.5q40 0 67.5 -27.5t27.5 -67.5q0 -41 -27.5 -68t-67.5 -27q-41 0 -68 27t-27 68zM205 639q0 -21 14 -35.5t35 -14.5q20 0 34 14.5t14 35.5q0 20 -14 34.5
t-34 14.5q-21 0 -35 -14.5t-14 -34.5z" />
    <glyph glyph-name="ae" unicode="&#xe6;" horiz-adv-x="798" 
d="M421 228q1 -44 7.5 -77t21.5 -55.5t40 -34t63 -11.5h153q12 0 19.5 -7t7.5 -18t-7 -18t-18 -7h-156q-86 0 -131 40q0 -17 -11.5 -28.5t-28.5 -11.5h-187q-30 0 -56 11t-45.5 30.5t-31 45.5t-11.5 56t11.5 56t31 45.5t45.5 31t56 11.5h174v73q0 42 -21.5 70.5t-61.5 28.5
h-179q-12 0 -19.5 7t-7.5 18t7 18t18 7h181q39 0 70.5 -20.5t48.5 -51.5q26 37 64.5 54.5t87.5 17.5q94 0 143 -49t49 -145v-47q0 -17 -11.5 -28.5t-28.5 -11.5h-287zM368 52v184h-174q-19 0 -36 -7.5t-29.5 -20t-19.5 -29.5t-7 -36t7 -35.5t19.5 -29t29.5 -19.5t36 -7h174z
M695 278v37q0 71 -34.5 107.5t-104.5 36.5q-64 0 -99.5 -39t-35.5 -105v-37h274z" />
    <glyph glyph-name="ccedilla" unicode="&#xe7;" horiz-adv-x="433" 
d="M204 -72q-16 0 -26 10t-10 26v46q-118 36 -118 201v94q0 101 47.5 152.5t147.5 51.5h113q11 0 18 -7t7 -18q0 -25 -25 -25h-113q-75 0 -109 -40t-34 -114v-95q0 -78 35.5 -119t107.5 -41h113q11 0 18 -7t7 -18t-7 -18t-18 -7h-139v-26q29 -3 40 -17.5t11 -49.5
q0 -41 -14 -56t-55 -15h-25q-25 0 -25 23q0 10 6 16.5t17 6.5h27q12 0 14.5 5t2.5 20q0 11 -1.5 15.5t-7.5 5.5h-5z" />
    <glyph glyph-name="egrave" unicode="&#xe8;" horiz-adv-x="480" 
d="M103 228q1 -44 7.5 -77t21.5 -55.5t40 -34t63 -11.5h153q12 0 19 -7t7 -18t-7 -18t-18 -7h-155q-54 0 -89.5 14.5t-56.5 44t-29.5 74t-8.5 104.5v78q0 46 14.5 82.5t40 61t59.5 37.5t74 13q94 0 143 -49t49 -145v-47q0 -17 -11.5 -28.5t-29.5 -11.5h-286zM377 278v37
q0 71 -34.5 107.5t-104.5 36.5q-64 0 -99.5 -39t-35.5 -105v-37h274zM146 624q-13 8 -13 24q0 6 2 10q6 15 24 15l11 -3q37 -17 78 -37t78 -37q15 -8 15 -23q0 -2 -0.5 -4.5t-2.5 -7.5q-6 -14 -22 -14q-7 0 -12 4z" />
    <glyph glyph-name="eacute" unicode="&#xe9;" horiz-adv-x="480" 
d="M103 228q1 -44 7.5 -77t21.5 -55.5t40 -34t63 -11.5h153q12 0 19 -7t7 -18t-7 -18t-18 -7h-155q-54 0 -89.5 14.5t-56.5 44t-29.5 74t-8.5 104.5v78q0 46 14.5 82.5t40 61t59.5 37.5t74 13q94 0 143 -49t49 -145v-47q0 -17 -11.5 -28.5t-29.5 -11.5h-286zM377 278v37
q0 71 -34.5 107.5t-104.5 36.5q-64 0 -99.5 -39t-35.5 -105v-37h274zM170 553q-5 -4 -12 -4q-16 0 -23 16q-2 4 -2 10q0 15 15 23l158 75q4 2 9 2q18 0 24 -15q2 -4 2 -10q0 -16 -13 -24z" />
    <glyph glyph-name="ecircumflex" unicode="&#xea;" horiz-adv-x="480" 
d="M103 228q1 -44 7.5 -77t21.5 -55.5t40 -34t63 -11.5h153q12 0 19 -7t7 -18t-7 -18t-18 -7h-155q-54 0 -89.5 14.5t-56.5 44t-29.5 74t-8.5 104.5v78q0 46 14.5 82.5t40 61t59.5 37.5t74 13q94 0 143 -49t49 -145v-47q0 -17 -11.5 -28.5t-29.5 -11.5h-286zM377 278v37
q0 71 -34.5 107.5t-104.5 36.5q-64 0 -99.5 -39t-35.5 -105v-37h274zM352 585q2 -4 4 -7t2 -8q0 -11 -7.5 -18t-16.5 -7q-13 0 -21 8l-75 81q-8 -8 -21 -21.5t-26 -27.5q-15 -16 -31 -33q-9 -7 -18 -7q-11 0 -18 7t-7 18q0 9 6 15l76 85q7 8 17 13.5t22 5.5q10 0 18.5 -5
t14.5 -12z" />
    <glyph glyph-name="edieresis" unicode="&#xeb;" horiz-adv-x="480" 
d="M103 228q1 -44 7.5 -77t21.5 -55.5t40 -34t63 -11.5h153q12 0 19 -7t7 -18t-7 -18t-18 -7h-155q-54 0 -89.5 14.5t-56.5 44t-29.5 74t-8.5 104.5v78q0 46 14.5 82.5t40 61t59.5 37.5t74 13q94 0 143 -49t49 -145v-47q0 -17 -11.5 -28.5t-29.5 -11.5h-286zM377 278v37
q0 71 -34.5 107.5t-104.5 36.5q-64 0 -99.5 -39t-35.5 -105v-37h274zM129 601q0 11 7 19t19 8q11 0 19 -8t8 -19v-26q0 -12 -8 -19t-19 -7q-26 0 -26 26v26zM292 601q0 11 7.5 19t18.5 8q12 0 19.5 -8t7.5 -19v-26q0 -12 -7.5 -19t-19.5 -7q-11 0 -18.5 7t-7.5 19v26z" />
    <glyph glyph-name="igrave" unicode="&#xec;" horiz-adv-x="309" 
d="M64 625q-14 9 -14 24q0 7 2 10q7 15 24 15l12 -3q37 -17 78 -37t78 -37q15 -8 15 -23q0 -2 -0.5 -4.5t-2.5 -7.5q-8 -14 -22 -14q-8 0 -13 4zM128 473q0 11 8 19t19 8q12 0 19.5 -8t7.5 -21v-442q0 -13 -7.5 -21t-19.5 -8q-11 0 -19 8t-8 19v446z" />
    <glyph glyph-name="iacute" unicode="&#xed;" horiz-adv-x="309" 
d="M88 551q-5 -4 -13 -4q-14 0 -23 16q-2 4 -2 10q0 15 16 23l157 75q4 2 10 2q16 0 24 -15q2 -3 2 -10q0 -15 -14 -24zM128 473q0 11 8 19t19 8q12 0 19.5 -8t7.5 -21v-442q0 -13 -7.5 -21t-19.5 -8q-11 0 -19 8t-8 19v446z" />
    <glyph glyph-name="icircumflex" unicode="&#xee;" horiz-adv-x="340" 
d="M284 589q2 -4 4 -7t2 -8q0 -11 -7.5 -18t-16.5 -7q-12 0 -20 8l-76 81q-8 -8 -20.5 -21t-25.5 -27q-15 -16 -32 -33q-8 -8 -17 -8q-25 0 -25 25q0 8 5 15l76 85q7 8 17 13.5t22 5.5q10 0 19 -5t14 -12zM128 473q0 11 8 19t19 8q12 0 19.5 -8t7.5 -21v-442q0 -13 -7.5 -21
t-19.5 -8q-11 0 -19 8t-8 19v446z" />
    <glyph glyph-name="idieresis" unicode="&#xef;" horiz-adv-x="317" 
d="M50 600q0 11 7.5 19t18.5 8q12 0 19.5 -8t7.5 -19v-26q0 -12 -7.5 -19t-19.5 -7q-11 0 -18.5 7t-7.5 19v26zM214 600q0 11 7 19t19 8q11 0 19 -8t8 -19v-26q0 -12 -8 -19t-19 -7q-26 0 -26 26v26zM128 473q0 11 8 19t19 8q12 0 19.5 -8t7.5 -21v-442q0 -13 -7.5 -21
t-19.5 -8q-11 0 -19 8t-8 19v446z" />
    <glyph glyph-name="eth" unicode="&#xf0;" horiz-adv-x="536" 
d="M315 457q-8 -8 -18 -8q-11 0 -20 9q-2 3 -4.5 8t-2.5 10q0 9 7 18l87 86q-23 17 -52 24.5t-67 7.5h-147q-11 0 -18.5 7.5t-7.5 17.5q0 11 7.5 18.5t20.5 7.5h145q48 0 88.5 -11.5t69.5 -32.5l37 37q7 7 19 7t18 -6q9 -9 9 -19t-9 -19l-36 -36q23 -29 34 -68t11 -91v-195
q0 -122 -55.5 -175.5t-164.5 -53.5q-54 0 -94.5 14.5t-67.5 40t-40.5 61.5t-13.5 79v42q0 89 53 132t157 43h170v12q0 74 -29 118zM262 360q-79 0 -118 -31.5t-39 -91.5v-42q0 -65 38 -104t123 -39q42 0 72.5 9t51 30t30.5 55t10 85v129h-168z" />
    <glyph glyph-name="ntilde" unicode="&#xf1;" horiz-adv-x="478" 
d="M375 342q0 26 -8.5 47.5t-22.5 37t-33 24t-40 8.5h-168v-430q0 -13 -8 -21t-19 -8t-18.5 8t-7.5 19v439q0 17 11.5 30t30.5 13h179q31 0 59.5 -11t50.5 -32.5t34.5 -52.5t12.5 -71v-315q0 -11 -8 -19t-19 -8t-18.5 8t-7.5 19v315zM97 609q20 17 40.5 29.5t42.5 12.5
q26 0 44.5 -9.5t35.5 -21.5q11 -8 21 -14t22 -6q6 0 10.5 3.5t9 8l9 9t9.5 5.5q9 7 19 7q11 0 19 -8.5t8 -19.5q0 -4 -1.5 -9t-5.5 -9q-18 -17 -38 -30t-39 -13q-26 0 -43.5 9.5t-32.5 20.5l-4 3q-11 8 -21.5 13.5t-22.5 5.5q-11 0 -22.5 -8.5t-22.5 -17.5q-8 -8 -20 -8
q-11 0 -19 8t-8 19q0 7 2.5 11t7.5 9z" />
    <glyph glyph-name="ograve" unicode="&#xf2;" horiz-adv-x="494" 
d="M217 -6q-36 0 -66.5 12.5t-53 35.5t-35 55.5t-12.5 72.5v152q0 40 12.5 74t34.5 59t53 39t67 14h61q36 0 66.5 -14t52.5 -39t34.5 -59t12.5 -74v-152q0 -40 -12.5 -72.5t-35 -55.5t-53 -35.5t-65.5 -12.5h-61zM278 44q24 0 45 10t36 27t24 40t9 49v152q0 26 -9 50.5
t-24 43.5t-36 30.5t-45 11.5h-61q-24 0 -45 -11.5t-36.5 -30.5t-24 -43.5t-8.5 -50.5v-152q0 -26 8.5 -49t24 -40t36.5 -27t45 -10h61zM156 624q-14 9 -14 24q0 7 2 10q7 15 24 15l12 -3q37 -17 78 -37t78 -37q15 -8 15 -23q0 -2 -0.5 -4.5t-2.5 -7.5q-8 -14 -22 -14
q-8 0 -12 4z" />
    <glyph glyph-name="oacute" unicode="&#xf3;" horiz-adv-x="494" 
d="M217 -6q-36 0 -66.5 12.5t-53 35.5t-35 55.5t-12.5 72.5v152q0 40 12.5 74t34.5 59t53 39t67 14h61q36 0 66.5 -14t52.5 -39t34.5 -59t12.5 -74v-152q0 -40 -12.5 -72.5t-35 -55.5t-53 -35.5t-65.5 -12.5h-61zM278 44q24 0 45 10t36 27t24 40t9 49v152q0 26 -9 50.5
t-24 43.5t-36 30.5t-45 11.5h-61q-24 0 -45 -11.5t-36.5 -30.5t-24 -43.5t-8.5 -50.5v-152q0 -26 8.5 -49t24 -40t36.5 -27t45 -10h61zM180 550q-5 -4 -13 -4q-14 0 -23 16q-2 4 -2 10q0 15 16 23l158 75q3 2 9 2q16 0 24 -15q2 -3 2 -10q0 -8 -4 -14t-9 -10z" />
    <glyph glyph-name="ocircumflex" unicode="&#xf4;" horiz-adv-x="494" 
d="M217 -6q-36 0 -66.5 12.5t-53 35.5t-35 55.5t-12.5 72.5v152q0 40 12.5 74t34.5 59t53 39t67 14h61q36 0 66.5 -14t52.5 -39t34.5 -59t12.5 -74v-152q0 -40 -12.5 -72.5t-35 -55.5t-53 -35.5t-65.5 -12.5h-61zM278 44q24 0 45 10t36 27t24 40t9 49v152q0 26 -9 50.5
t-24 43.5t-36 30.5t-45 11.5h-61q-24 0 -45 -11.5t-36.5 -30.5t-24 -43.5t-8.5 -50.5v-152q0 -26 8.5 -49t24 -40t36.5 -27t45 -10h61zM281 674q30 -33 46.5 -51t24.5 -26l10 -11q2 -4 3.5 -6.5t1.5 -7.5q0 -11 -7 -18t-17 -7q-12 0 -20 8l-76 81q-8 -8 -20.5 -21t-25.5 -27
q-15 -16 -32 -33q-6 -8 -17 -8t-18 7t-7 18q0 9 6 15l76 85q6 8 16.5 13.5t21.5 5.5t19.5 -5t14.5 -12z" />
    <glyph glyph-name="otilde" unicode="&#xf5;" horiz-adv-x="494" 
d="M217 -6q-36 0 -66.5 12.5t-53 35.5t-35 55.5t-12.5 72.5v152q0 40 12.5 74t34.5 59t53 39t67 14h61q36 0 66.5 -14t52.5 -39t34.5 -59t12.5 -74v-152q0 -40 -12.5 -72.5t-35 -55.5t-53 -35.5t-65.5 -12.5h-61zM278 44q24 0 45 10t36 27t24 40t9 49v152q0 26 -9 50.5
t-24 43.5t-36 30.5t-45 11.5h-61q-24 0 -45 -11.5t-36.5 -30.5t-24 -43.5t-8.5 -50.5v-152q0 -26 8.5 -49t24 -40t36.5 -27t45 -10h61zM107 607q20 17 40.5 29.5t42.5 12.5q26 0 45 -10t34 -21l3 -2l5 -4q10 -6 18 -10t18 -4q5 0 16 8.5t22 17.5q9 7 18 7q11 0 19.5 -8.5
t8.5 -19.5q0 -9 -7 -18q-18 -17 -38 -30t-39 -13q-26 0 -43.5 9.5t-32.5 20.5q-13 8 -23.5 15t-24.5 7q-10 0 -20 -7t-21 -15q-1 -1 -1.5 -1t-1.5 -1l-2 -2q-6 -8 -19 -8q-11 0 -19 8t-8 19q0 7 2.5 11t7.5 9z" />
    <glyph glyph-name="odieresis" unicode="&#xf6;" horiz-adv-x="494" 
d="M217 -6q-36 0 -66.5 12.5t-53 35.5t-35 55.5t-12.5 72.5v152q0 40 12.5 74t34.5 59t53 39t67 14h61q36 0 66.5 -14t52.5 -39t34.5 -59t12.5 -74v-152q0 -40 -12.5 -72.5t-35 -55.5t-53 -35.5t-65.5 -12.5h-61zM278 44q24 0 45 10t36 27t24 40t9 49v152q0 26 -9 50.5
t-24 43.5t-36 30.5t-45 11.5h-61q-24 0 -45 -11.5t-36.5 -30.5t-24 -43.5t-8.5 -50.5v-152q0 -26 8.5 -49t24 -40t36.5 -27t45 -10h61zM140 600q0 11 7 19t19 8q11 0 18.5 -8t7.5 -19v-26q0 -12 -7.5 -19t-18.5 -7q-26 0 -26 26v26zM303 600q0 11 7.5 19t18.5 8t19 -8t8 -19
v-26q0 -12 -8 -19t-19 -7t-18.5 7t-7.5 19v26z" />
    <glyph glyph-name="divide" unicode="&#xf7;" horiz-adv-x="442" 
d="M76 322q-11 2 -18.5 9t-7.5 18q0 10 7.5 18t19.5 8h289q11 0 18.5 -8t7.5 -19t-7.5 -18.5t-18.5 -7.5h-290zM192 532q0 11 8 20t21 9q11 0 20 -9t9 -20v-37q0 -14 -9 -22.5t-20 -8.5q-13 0 -21 8.5t-8 20.5v39zM192 201q0 11 8 20t21 9q11 0 20 -9t9 -20v-37
q0 -14 -9 -22t-20 -8q-13 0 -21 8t-8 20v39z" />
    <glyph glyph-name="oslash" unicode="&#xf8;" horiz-adv-x="494" 
d="M125 -73q-6 -16 -24 -16q-6 0 -10 2q-17 6 -17 25q0 3 1 7t3 9l35 76q-29 23 -46 59t-17 81v152q0 40 12.5 74t34.5 59t53 39t67 14h61q23 0 44 -7l31 70q9 18 25 18q2 0 5.5 -1t5.5 -1q16 -6 16 -25q0 -2 -1 -5.5t-2 -5.5q-8 -18 -16.5 -36t-16.5 -37q36 -25 55.5 -65
t19.5 -91v-152q0 -40 -12.5 -72.5t-35 -55.5t-53 -35.5t-65.5 -12.5h-61q-15 0 -29.5 2.5t-28.5 7.5zM278 44q24 0 45 10t36 27t24 40t9 49v152q0 32 -11 59t-33 47q-42 -97 -83.5 -189t-84.5 -189q16 -6 37 -6h61zM217 458q-24 0 -45 -11.5t-36.5 -30.5t-24 -43.5
t-8.5 -50.5v-152q0 -26 8.5 -49t23.5 -40q43 96 82.5 187t82.5 187q-11 3 -22 3h-61z" />
    <glyph glyph-name="ugrave" unicode="&#xf9;" horiz-adv-x="478" 
d="M103 166q0 -26 8.5 -47.5t22.5 -36.5t33 -23.5t40 -8.5h168v430q0 11 8 20t19 9t18.5 -8.5t7.5 -18.5v-440q0 -17 -11.5 -29.5t-30.5 -12.5h-179q-32 0 -60 11t-50 32.5t-34.5 52.5t-12.5 70v316q0 10 8 18.5t19 8.5t18.5 -8.5t7.5 -18.5v-316zM153 624q-14 7 -14 24
q0 6 2 10q7 15 24 15l12 -3q37 -17 78 -37t78 -37q15 -8 15 -23q0 -2 -0.5 -4.5t-2.5 -7.5q-8 -14 -22 -14q-8 0 -12 4z" />
    <glyph glyph-name="uacute" unicode="&#xfa;" horiz-adv-x="478" 
d="M103 166q0 -26 8.5 -47.5t22.5 -36.5t33 -23.5t40 -8.5h168v430q0 11 8 20t19 9t18.5 -8.5t7.5 -18.5v-440q0 -17 -11.5 -29.5t-30.5 -12.5h-179q-32 0 -60 11t-50 32.5t-34.5 52.5t-12.5 70v316q0 10 8 18.5t19 8.5t18.5 -8.5t7.5 -18.5v-316zM177 551q-5 -4 -13 -4
q-14 0 -23 16q-2 4 -2 10q0 15 16 23l157 75q4 2 10 2q16 0 24 -15q2 -3 2 -10q0 -8 -4 -14t-9 -10z" />
    <glyph glyph-name="ucircumflex" unicode="&#xfb;" horiz-adv-x="478" 
d="M103 166q0 -26 8.5 -47.5t22.5 -36.5t33 -23.5t40 -8.5h168v430q0 11 8 20t19 9t18.5 -8.5t7.5 -18.5v-440q0 -17 -11.5 -29.5t-30.5 -12.5h-179q-32 0 -60 11t-50 32.5t-34.5 52.5t-12.5 70v316q0 10 8 18.5t19 8.5t18.5 -8.5t7.5 -18.5v-316zM278 675q30 -33 46.5 -51
t24.5 -26l10 -11q2 -4 3.5 -6.5t1.5 -7.5q0 -11 -7 -18t-17 -7q-12 0 -20 8l-76 81q-8 -8 -20.5 -21.5t-25.5 -27.5q-15 -16 -32 -33q-7 -7 -17 -7q-11 0 -18 7t-7 18q0 9 6 15l76 85q6 8 16.5 13.5t21.5 5.5t19.5 -5t14.5 -12z" />
    <glyph glyph-name="udieresis" unicode="&#xfc;" horiz-adv-x="478" 
d="M103 166q0 -26 8.5 -47.5t22.5 -36.5t33 -23.5t40 -8.5h168v430q0 11 8 20t19 9t18.5 -8.5t7.5 -18.5v-440q0 -17 -11.5 -29.5t-30.5 -12.5h-179q-32 0 -60 11t-50 32.5t-34.5 52.5t-12.5 70v316q0 10 8 18.5t19 8.5t18.5 -8.5t7.5 -18.5v-316zM136 600q0 11 7 19t19 8
q11 0 18.5 -8t7.5 -19v-26q0 -12 -7.5 -19t-18.5 -7q-26 0 -26 26v26zM299 600q0 11 7.5 19t18.5 8t19 -8t8 -19v-26q0 -12 -8 -19t-19 -7t-18.5 7t-7.5 19v26z" />
    <glyph glyph-name="yacute" unicode="&#xfd;" horiz-adv-x="483" 
d="M383 482q3 7 9.5 12.5t14.5 5.5q11 0 18.5 -7.5t7.5 -18.5q0 -4 -1 -7l-212 -671q-2 -7 -8 -12t-16 -5q-11 0 -18 7t-7 18q0 6 1 8l59 189q-16 2 -29 13t-18 26l-133 428q0 1 -0.5 3t-0.5 3q0 11 7 18.5t18 7.5q9 0 15.5 -5t9.5 -12q32 -106 66.5 -213.5t66.5 -212.5
q2 -5 6 -5q8 0 8 4zM175 554q-5 -4 -12 -4q-15 0 -24 16q-1 4 -1 10q0 15 15 23l158 75q3 2 9 2q16 0 24 -15q2 -3 2 -10q0 -8 -4 -14t-9 -10z" />
    <glyph glyph-name="thorn" unicode="&#xfe;" horiz-adv-x="476" 
d="M50 693q0 12 7.5 19.5t18.5 7.5t19 -7.5t8 -19.5v-184h164q44 0 74.5 -19.5t49 -48t27 -61.5t8.5 -60v-154q0 -39 -12.5 -70t-34.5 -52.5t-50.5 -32.5t-59.5 -11h-166v-194q0 -12 -8 -19.5t-19 -7.5t-18.5 7.5t-7.5 19.5v887zM103 50h166q21 0 40 8.5t33 23.5t22.5 36.5
t8.5 47.5v151q0 63 -30 101t-76 38h-164v-406z" />
    <glyph glyph-name="ydieresis" unicode="&#xff;" horiz-adv-x="483" 
d="M383 482q3 7 9.5 12.5t14.5 5.5q11 0 18.5 -7.5t7.5 -18.5q0 -4 -1 -7l-212 -671q-2 -7 -8 -12t-16 -5q-11 0 -18 7t-7 18q0 6 1 8l59 189q-16 2 -29 13t-18 26l-133 428q0 1 -0.5 3t-0.5 3q0 11 7 18.5t18 7.5q9 0 15.5 -5t9.5 -12q32 -106 66.5 -213.5t66.5 -212.5
q2 -5 6 -5q8 0 8 4zM134 600q0 11 7 19t19 8q11 0 19 -8t8 -19v-26q0 -12 -8 -19t-19 -7q-26 0 -26 26v26zM297 600q0 11 7.5 19t18.5 8q12 0 19.5 -8t7.5 -19v-26q0 -12 -7.5 -19t-19.5 -7q-11 0 -18.5 7t-7.5 19v26z" />
    <glyph glyph-name="dotlessi" unicode="&#x131;" horiz-adv-x="154" 
d="M50 473q0 11 8 19t19 8q12 0 19.5 -8t7.5 -21v-442q0 -13 -7.5 -21t-19.5 -8q-11 0 -19 8t-8 19v446z" />
    <glyph glyph-name="Lslash" unicode="&#x141;" horiz-adv-x="561" 
d="M94 175q-7 -7 -18 -7t-18 7q-3 4 -5.5 9t-2.5 10t1.5 10t6.5 10l67 67v392q0 11 7.5 19t19.5 8q11 0 19 -8t8 -19v-339l132 133q4 4 9 5.5t10 1.5q10 0 18 -7q8 -10 8 -19q0 -10 -8 -18l-169 -170v-206h302q14 0 22 -7.5t8 -19.5q0 -11 -8 -19t-20 -8h-314
q-19 0 -31.5 12.5t-12.5 32.5v160z" />
    <glyph glyph-name="lslash" unicode="&#x142;" horiz-adv-x="403" 
d="M94 173q-7 -7 -18 -7q-10 0 -17 7q-9 9 -9 19q0 5 1.5 10t6.5 10l83 81v372q0 12 7.5 19.5t19.5 7.5q11 0 18.5 -7.5t7.5 -21.5v-316l115 115q9 7 18 7t18 -7q8 -10 8 -19q0 -10 -8 -18l-151 -152v-244q0 -13 -7.5 -21t-18.5 -8q-12 0 -19.5 8t-7.5 19v192z" />
    <glyph glyph-name="OE" unicode="&#x152;" horiz-adv-x="775" 
d="M50 458q0 66 16.5 112t47 75t74 42t98.5 13h410q13 0 21 -8t8 -19q0 -12 -8 -19.5t-19 -7.5h-336v-255h275q14 0 22 -8t8 -19q0 -12 -8 -20t-20 -8h-277v-282h334q13 0 21 -7.5t8 -19.5q0 -11 -8 -19t-19 -8h-412q-57 0 -101 17t-74 48t-45.5 74.5t-15.5 96.5v222z
M308 646h-22q-84 0 -132 -43.5t-48 -144.5v-222q0 -40 11.5 -73.5t34.5 -58t56.5 -38t77.5 -13.5h22v593z" />
    <glyph glyph-name="oe" unicode="&#x153;" horiz-adv-x="823" 
d="M446 228q1 -44 7.5 -77t21.5 -55.5t39.5 -34t62.5 -11.5h153q13 0 20 -7t7 -18t-7 -18t-18 -7h-156q-60 0 -97 19t-57 57q-23 -37 -61 -59.5t-83 -22.5h-61q-35 0 -65.5 12.5t-53 35.5t-35.5 55.5t-13 72.5v152q0 40 12.5 74t35 59t53 39t66.5 14h61q48 0 83.5 -21.5
t57.5 -62.5q23 45 65 65t96 20q94 0 143.5 -49t49.5 -145v-47q0 -17 -12 -28.5t-29 -11.5h-286zM278 44q24 0 45 10t36.5 27t24 40t8.5 49v152q0 26 -8.5 50.5t-24 43.5t-36.5 30.5t-45 11.5h-61q-24 0 -45 -11.5t-36.5 -30.5t-24 -43.5t-8.5 -50.5v-152q0 -26 8.5 -49
t24 -40t36.5 -27t45 -10h61zM720 278v37q0 71 -34.5 107.5t-105.5 36.5q-63 0 -98.5 -39t-35.5 -105v-37h274z" />
    <glyph glyph-name="Scaron" unicode="&#x160;" horiz-adv-x="533" 
d="M50 26q0 11 7.5 18.5t18.5 7.5h194q78 0 119.5 36t41.5 120q0 33 -9.5 54.5t-29.5 35t-51 22t-73 16.5q-45 9 -84.5 18.5t-69.5 28.5t-47 52t-17 89q0 49 15 82.5t43.5 54.5t69 30t91.5 9h169q13 0 21 -8t8 -18q0 -11 -8 -19t-19 -8h-171q-78 0 -122.5 -27t-44.5 -96
q0 -39 12.5 -62.5t35.5 -37.5t55.5 -21.5t72.5 -14.5q49 -9 87 -20.5t64 -31.5t40 -51t14 -77q0 -112 -54 -160t-159 -48h-194q-11 0 -18.5 8t-7.5 18zM303 768q-6 -8 -15 -13.5t-20 -5.5t-21.5 6t-17.5 14q-2 2 -14 15t-26 29q-16 18 -36 41q-6 6 -6 16q0 11 7 18t18 7
q10 0 18 -8l78 -90l77 88q8 10 21 10q9 0 16.5 -7t7.5 -18q0 -8 -6 -16z" />
    <glyph glyph-name="scaron" unicode="&#x161;" horiz-adv-x="469" 
d="M269 568q-7 -8 -15.5 -13t-18.5 -5q-12 0 -22 5.5t-17 13.5q-2 2 -14 15.5t-26 29.5l-36 40q-6 6 -6 15q0 11 7 18t18 7q10 0 18 -8l78 -89l75 87q8 10 21 10q9 0 16.5 -7t7.5 -18q0 -5 -2 -8.5t-4 -6.5zM65 25q0 11 7 18t18 7h141q61 0 97 20.5t36 73.5q0 36 -28 58
t-80 29l-43 5q-77 8 -120 37t-43 97q0 37 14 63.5t37 43t54 24t65 7.5h153q12 0 19.5 -7t7.5 -18t-7 -18t-18 -7h-155q-49 0 -82 -19.5t-33 -66.5q0 -42 29 -59.5t93 -25.5l38 -5q72 -10 113 -42t41 -95q0 -42 -14 -69.5t-38.5 -44.5t-59 -24t-76.5 -7h-141q-11 0 -18 7
t-7 18z" />
    <glyph glyph-name="Ydieresis" unicode="&#x178;" horiz-adv-x="569" 
d="M313 319v-292q0 -11 -7.5 -19t-19.5 -8t-19.5 8t-7.5 19v292l-205 338q-2 5 -3 9t-1 7q0 11 7.5 19t19.5 8q15 0 23 -13l186 -314l183 313q9 14 23 14q12 0 19.5 -8t7.5 -19q0 -4 -0.5 -7t-2.5 -7zM176 801q0 11 7.5 19t18.5 8q12 0 20 -8t8 -19v-27q0 -11 -8 -18.5
t-20 -7.5q-11 0 -18.5 7.5t-7.5 18.5v27zM341 801q0 11 7.5 19t19.5 8q11 0 19 -8t8 -19v-27q0 -11 -8 -18.5t-19 -7.5q-12 0 -19.5 7.5t-7.5 18.5v27z" />
    <glyph glyph-name="Zcaron" unicode="&#x17d;" horiz-adv-x="546" 
d="M50 674q0 10 7.5 18t18.5 8h354q28 0 47 -19t19 -47q0 -11 -4 -21t-9 -18l-379 -522q-2 -2 -2 -7q0 -12 14 -12h351q13 0 21 -7.5t8 -19.5q0 -11 -8 -19t-19 -8h-353q-28 0 -47 19t-19 47q0 21 12 39l379 522q2 2 2 7q0 13 -13 13h-354q-11 0 -18.5 8t-7.5 19zM307 769
q-6 -8 -15 -13.5t-20 -5.5t-21.5 6t-17.5 14q-2 2 -14 15t-26 29q-16 18 -36 41q-6 6 -6 16q0 11 7 18t18 7q10 0 18 -8l78 -90l77 88q8 10 20 10q10 0 17.5 -7t7.5 -18q0 -8 -6 -16z" />
    <glyph glyph-name="zcaron" unicode="&#x17e;" horiz-adv-x="456" 
d="M107 51h271q13 0 20.5 -7.5t7.5 -18.5t-7.5 -18t-18.5 -7h-285q-20 0 -32.5 12.5t-12.5 32.5q0 8 3 16t6 13l279 375h-257q-11 0 -18 7t-7 18t7 18.5t18 7.5h266q20 0 33 -13t13 -33q0 -17 -9 -27zM256 567q-7 -8 -16 -13t-19 -5q-11 0 -21.5 5.5t-17.5 13.5
q-2 2 -13.5 15.5t-25.5 29.5l-36 40q-6 6 -6 15q0 11 7 18t18 7q9 0 17 -8l78 -89l76 87q8 10 20 10q10 0 17 -7t7 -18q0 -5 -2 -8.5t-4 -6.5z" />
    <glyph glyph-name="florin" unicode="&#x192;" horiz-adv-x="475" 
d="M150 475q0 11 7 18t18 7h43q8 85 51.5 130.5t124.5 59.5q30 0 30 -25q0 -10 -6 -16t-14 -8q-59 -10 -90.5 -45t-41.5 -96h128q11 0 18 -7t7 -18t-7 -18t-18 -7h-130v-423q0 -45 -14.5 -80t-40.5 -58.5t-61.5 -36t-78.5 -12.5q-11 0 -18 7t-7 18t7 18t18 7q69 0 105.5 39
t36.5 112v409h-42q-11 0 -18 7t-7 18z" />
    <glyph glyph-name="circumflex" unicode="&#x2c6;" horiz-adv-x="340" 
d="M284 617q2 -4 4 -7t2 -8q0 -11 -7.5 -18t-16.5 -7q-13 0 -20 9l-76 80q-8 -8 -20.5 -21t-25.5 -27q-15 -16 -32 -33q-8 -8 -17 -8q-25 0 -25 25q0 8 5 15l76 85q7 8 17 13.5t22 5.5q10 0 19 -5t15 -13z" />
    <glyph glyph-name="caron" unicode="&#x2c7;" horiz-adv-x="340" 
d="M204 566q-6 -8 -15 -13t-19 -5q-12 0 -22 5.5t-17 13.5q-2 2 -14 15.5t-26 29.5l-36 40q-5 7 -5 15q0 25 25 25q8 0 17 -7l78 -90l76 88q9 9 20 9q9 0 16.5 -7t7.5 -18q0 -7 -6 -15z" />
    <glyph glyph-name="breve" unicode="&#x2d8;" horiz-adv-x="349" 
d="M50 667q0 10 6 17t17 7q9 0 16.5 -7t7.5 -17q0 -21 14 -35.5t35 -14.5h58q20 0 33.5 14t14.5 34q0 26 23 26q9 0 16.5 -7t7.5 -17q0 -20 -7.5 -37.5t-20.5 -30.5t-30.5 -20t-36.5 -7h-59q-41 0 -68 27t-27 68z" />
    <glyph glyph-name="dotaccent" unicode="&#x2d9;" horiz-adv-x="153" 
d="M50 665q0 12 7 19.5t19 7.5q11 0 19 -7.5t8 -19.5v-26q0 -11 -8 -18.5t-19 -7.5q-12 0 -19 7.5t-7 18.5v26z" />
    <glyph glyph-name="ring" unicode="&#x2da;" horiz-adv-x="291" 
d="M50 633q0 40 27 67.5t68 27.5q40 0 68 -27.5t28 -67.5q0 -41 -28 -68.5t-68 -27.5q-41 0 -68 27.5t-27 68.5zM97 633q0 -21 14 -35.5t35 -14.5q20 0 34 14.5t14 35.5q0 20 -14 34.5t-34 14.5q-21 0 -35 -14.5t-14 -34.5z" />
    <glyph glyph-name="ogonek" unicode="&#x2db;" horiz-adv-x="273" 
d="M111 -27q-6 -1 -7.5 -5.5t-1.5 -15.5q0 -17 2.5 -34.5t14.5 -17.5h81q10 0 16.5 -6.5t6.5 -16.5q0 -23 -25 -23h-80q-20 0 -33.5 8t-21 21.5t-10.5 31.5t-3 37q0 38 12.5 52.5t48.5 14.5h41q0 -20 -10.5 -33t-26.5 -13h-4z" />
    <glyph glyph-name="tilde" unicode="&#x2dc;" horiz-adv-x="400" 
d="M60 603q20 17 40.5 29t42.5 12q26 0 45 -10t34 -21q12 -8 22 -14t22 -6q5 0 16 9t22 17q8 8 18 8q11 0 19.5 -8.5t8.5 -19.5q0 -9 -7 -18q-19 -17 -38.5 -30.5t-38.5 -13.5q-26 0 -43.5 9.5t-32.5 20.5l-3 2l-5 4q-11 7 -20 11.5t-20 4.5t-23 -8t-23 -18q-7 -7 -19 -7
q-11 0 -19 7.5t-8 19.5q0 10 10 20z" />
    <glyph glyph-name="hungarumlaut" unicode="&#x2dd;" horiz-adv-x="473" 
d="M87 546q-4 -4 -12 -4q-15 0 -23 17q-2 3 -2 9q0 16 15 23l158 75q4 2 10 2q16 0 24 -14q2 -4 2 -11q0 -15 -14 -24zM252 546q-5 -4 -13 -4q-15 0 -23 17q-2 3 -2 9q0 17 16 23l157 75q4 2 10 2q16 0 24 -14q2 -4 2 -11q0 -8 -4 -14t-9 -10z" />
    <glyph glyph-name="Delta" unicode="&#x394;" 
 />
    <glyph glyph-name="Delta" unicode="&#x2206;" 
 />
    <glyph glyph-name="Omega" unicode="&#x3a9;" 
 />
    <glyph glyph-name="Omega" unicode="&#x2126;" 
 />
    <glyph glyph-name="pi" unicode="&#x3c0;" horiz-adv-x="153" 
d="M50 500h53v-500h-53v500zM50 500h53v-500h-53v500z" />
    <glyph glyph-name="endash" unicode="&#x2013;" horiz-adv-x="507" 
d="M76 244q-11 2 -18.5 9t-7.5 18t8 18.5t19 7.5h354q11 0 18.5 -7.5t7.5 -19.5q0 -11 -7.5 -18.5t-18.5 -7.5h-355z" />
    <glyph glyph-name="emdash" unicode="&#x2014;" horiz-adv-x="638" 
d="M76 244q-11 2 -18.5 9t-7.5 18t7.5 18.5t19.5 7.5h485q11 0 18.5 -7.5t7.5 -19.5q0 -11 -7.5 -18.5t-18.5 -7.5h-486z" />
    <glyph glyph-name="quoteleft" unicode="&#x2018;" horiz-adv-x="193" 
d="M129 646q-8 -3 -16 -9.5t-8 -19.5v-68q0 -11 -8 -19.5t-19 -8.5t-19.5 8.5t-8.5 19.5v68q0 27 17.5 47t43.5 26q5 2 9 2q23 0 23 -23q0 -8 -4 -14.5t-10 -8.5z" />
    <glyph glyph-name="quoteright" unicode="&#x2019;" horiz-adv-x="193" 
d="M65 567q7 3 15.5 10t8.5 19v68q0 11 7.5 19.5t19.5 8.5q11 0 19 -8.5t8 -19.5v-68q0 -26 -17.5 -46t-42.5 -27q-5 -2 -6.5 -2h-3.5q-10 0 -16.5 6.5t-6.5 16.5q0 8 4.5 14.5t10.5 8.5z" />
    <glyph glyph-name="quotesinglbase" unicode="&#x201a;" horiz-adv-x="193" 
d="M65 -15q7 2 15.5 9t8.5 19v69q0 11 7.5 19.5t19.5 8.5q11 0 19 -8.5t8 -19.5v-69q0 -26 -17.5 -46t-42.5 -27q-5 -2 -6.5 -2h-3.5q-10 0 -16.5 6.5t-6.5 17.5q0 8 4.5 14.5t10.5 8.5z" />
    <glyph glyph-name="quotedblleft" unicode="&#x201c;" horiz-adv-x="293" 
d="M129 646q-8 -3 -16 -9.5t-8 -19.5v-68q0 -11 -8 -19.5t-19 -8.5t-19.5 8.5t-8.5 19.5v68q0 27 17.5 47t43.5 26q5 2 9 2q23 0 23 -23q0 -8 -4 -14.5t-10 -8.5zM229 646q-8 -3 -16 -9.5t-8 -19.5v-68q0 -11 -8 -19.5t-19 -8.5t-19.5 8.5t-8.5 19.5v68q0 27 17.5 47
t43.5 26q5 2 9 2q23 0 23 -23q0 -8 -4 -14.5t-10 -8.5z" />
    <glyph glyph-name="quotedblright" unicode="&#x201d;" horiz-adv-x="293" 
d="M165 567q7 3 15.5 10t8.5 19v68q0 11 7.5 19.5t19.5 8.5q11 0 19 -8.5t8 -19.5v-68q0 -26 -17.5 -46t-42.5 -27q-5 -2 -6.5 -2h-3.5q-10 0 -16.5 6.5t-6.5 16.5q0 8 4.5 14.5t10.5 8.5zM65 567q7 3 15.5 10t8.5 19v68q0 11 7.5 19.5t19.5 8.5q11 0 19 -8.5t8 -19.5v-68
q0 -26 -17.5 -46t-42.5 -27q-5 -2 -6.5 -2h-3.5q-10 0 -16.5 6.5t-6.5 16.5q0 8 4.5 14.5t10.5 8.5z" />
    <glyph glyph-name="quotedblbase" unicode="&#x201e;" horiz-adv-x="293" 
d="M165 -15q7 2 15.5 9t8.5 19v69q0 11 7.5 19.5t19.5 8.5q11 0 19 -8.5t8 -19.5v-69q0 -26 -17.5 -46t-42.5 -27q-5 -2 -6.5 -2h-3.5q-10 0 -16.5 6.5t-6.5 17.5q0 8 4.5 14.5t10.5 8.5zM65 -15q7 2 15.5 9t8.5 19v69q0 11 7.5 19.5t19.5 8.5q11 0 19 -8.5t8 -19.5v-69
q0 -26 -17.5 -46t-42.5 -27q-5 -2 -6.5 -2h-3.5q-10 0 -16.5 6.5t-6.5 17.5q0 8 4.5 14.5t10.5 8.5z" />
    <glyph glyph-name="dagger" unicode="&#x2020;" horiz-adv-x="426" 
d="M76 458q-11 2 -18.5 8.5t-7.5 18.5q0 10 8 18t19 8h110v154q0 12 8 19.5t19 7.5t19 -7.5t8 -21.5v-152h109q12 0 19 -8t7 -19q0 -26 -26 -26h-109v-486q0 -13 -8 -21t-19 -8t-19 8t-8 19v488h-111z" />
    <glyph glyph-name="daggerdbl" unicode="&#x2021;" horiz-adv-x="509" 
d="M77 202q-11 0 -19 7.5t-8 19.5q0 11 8 19t21 8h149v201h-151q-11 0 -19 7.5t-8 19.5q0 11 8 19t21 8h149v154q0 12 8 19.5t19 7.5t19 -7.5t8 -21.5v-152h148q13 0 21 -8t8 -19q0 -12 -8 -19.5t-19 -7.5h-150v-201h148q13 0 21 -8t8 -19q0 -12 -8 -19.5t-19 -7.5h-150
v-173q0 -13 -8 -21t-19 -8t-19 8t-8 19v175h-151z" />
    <glyph glyph-name="bullet" unicode="&#x2022;" horiz-adv-x="321" 
d="M50 311q0 22 8.5 42t23.5 35t35 24t43 9q22 0 42.5 -9t35.5 -24t24 -35t9 -42q0 -23 -9 -43t-24 -35t-35.5 -23.5t-42.5 -8.5q-47 0 -78.5 31.5t-31.5 78.5z" />
    <glyph glyph-name="ellipsis" unicode="&#x2026;" horiz-adv-x="428" 
d="M50 67q0 12 8 20.5t20 8.5t20.5 -8.5t8.5 -20.5v-36q0 -14 -8.5 -22.5t-20.5 -8.5t-20 8t-8 21v38zM185 67q0 12 8.5 20.5t20.5 8.5q11 0 20 -8.5t9 -20.5v-36q0 -14 -9 -22.5t-20 -8.5q-12 0 -20.5 8t-8.5 21v38zM321 67q0 12 8 20.5t21 8.5q11 0 19.5 -8.5t8.5 -20.5
v-36q0 -14 -8.5 -22.5t-19.5 -8.5q-13 0 -21 8t-8 21v38z" />
    <glyph glyph-name="perthousand" unicode="&#x2030;" horiz-adv-x="850" 
d="M178 694q57 0 84 -31.5t27 -106.5t-27.5 -109t-83.5 -34q-57 0 -84.5 34.5t-27.5 109.5q0 74 27.5 105.5t84.5 31.5zM119 557q0 -45 12 -69.5t47 -24.5q34 0 46 24t12 69q0 44 -12 66t-46 22t-46.5 -22t-12.5 -65zM448 281q57 0 84 -32t27 -107t-27.5 -108.5t-83.5 -33.5
q-57 0 -84.5 34t-27.5 109q0 74 27.5 106t84.5 32zM389 143q0 -45 12.5 -69t46.5 -24t46 23.5t12 68.5t-12 67t-46 22q-33 0 -46 -22t-13 -66zM99 12q-7 -12 -22 -12q-8 0 -16 4q-11 7 -11 22q0 8 5 18l464 640q9 11 24 11q9 0 15 -5q11 -7 11 -22q0 -9 -5 -15zM688 281
q57 0 84.5 -32t27.5 -107t-28 -108.5t-84 -33.5q-57 0 -84 34t-27 109q0 74 27 106t84 32zM630 143q0 -45 12 -69t46 -24t46.5 23.5t12.5 68.5t-12.5 67t-46.5 22q-33 0 -45.5 -22t-12.5 -66z" />
    <glyph glyph-name="guilsinglleft" unicode="&#x2039;" horiz-adv-x="280" 
d="M189 135l-15.5 13t-35.5 30t-40 33.5t-30 24.5q-8 6 -13 15t-5 19q0 12 5.5 22t13.5 17l121 93q7 5 15 5q11 0 18 -7t7 -18q0 -10 -9 -19l-125 -93l124 -97q10 -8 10 -20q0 -10 -7 -17t-18 -7q-8 0 -16 6z" />
    <glyph glyph-name="guilsinglright" unicode="&#x203a;" horiz-adv-x="280" 
d="M91 135q-4 -2 -7.5 -4t-8.5 -2q-11 0 -18 7t-7 17q0 12 10 20l114 96q-9 7 -28 22.5t-39 31.5q-23 18 -48 40q-9 9 -9 19q0 11 7 18t18 7q3 0 7.5 -1.5t6.5 -3.5l122 -93q8 -7 13.5 -17t5.5 -22q0 -10 -5 -19t-13 -15q-11 -8 -31 -24.5t-40 -33.5q-24 -20 -50 -43z" />
    <glyph glyph-name="fraction" unicode="&#x2044;" horiz-adv-x="437" 
d="M101 16q-4 -5 -10.5 -10.5t-13.5 -5.5t-11 3q-16 6 -16 25q0 3 1 6.5t2 8.5l282 632q9 18 25 18q2 0 5.5 -1t5.5 -2q16 -5 16 -24q0 -3 -1 -6t-2 -5z" />
    <glyph glyph-name="Euro" unicode="&#x20ac;" horiz-adv-x="590" 
d="M76 243q-11 2 -18.5 9t-7.5 18t8 18.5t19 7.5h34v81h-35q-11 2 -18.5 8.5t-7.5 18.5q0 10 8 18t19 9h34q0 65 16 110.5t46 74t73 41.5t97 13h171q10 0 18 -7.5t8 -18.5q0 -10 -8 -18t-18 -8h-171q-83 0 -130.5 -44t-47.5 -144h276q12 0 19 -8t7 -19q0 -26 -26 -26h-276
v-81h276q12 0 19 -7.5t7 -19.5q0 -11 -7 -18.5t-19 -7.5h-276v-9q0 -39 11.5 -72.5t34 -58t56 -38t76.5 -13.5h169q12 0 20 -8t8 -18q0 -11 -8 -18.5t-18 -7.5h-171q-56 0 -99 17t-72.5 47.5t-45 73.5t-15.5 96v9h-35z" />
    <glyph glyph-name="trademark" unicode="&#x2122;" horiz-adv-x="786" 
d="M174 640h-99q-10 0 -17.5 7t-7.5 18q0 10 7.5 18t17.5 8h247q11 0 19 -8t8 -18q0 -11 -8 -18t-18 -7h-98v-329q0 -10 -8 -17.5t-17 -7.5q-10 0 -18 7.5t-8 17.5v329zM373 641q0 20 14.5 35t35.5 15q17 0 31 -9.5t19 -25.5q10 -38 20 -71t19.5 -64.5t19 -64.5t20.5 -71
l85 272q5 14 19.5 24t28.5 10q20 0 35.5 -15t15.5 -35v-330q0 -10 -8 -17.5t-18 -7.5t-18 7.5t-8 17.5v323l-104 -328q-3 -8 -10 -14t-19 -6q-11 0 -18.5 6.5t-12.5 16.5l-96 321v-319q0 -10 -8 -17.5t-18 -7.5t-17.5 7.5t-7.5 17.5v330z" />
    <glyph glyph-name="partialdiff" unicode="&#x2202;" 
 />
    <glyph glyph-name="product" unicode="&#x220f;" 
 />
    <glyph glyph-name="summation" unicode="&#x2211;" 
 />
    <glyph glyph-name="minus" unicode="&#x2212;" horiz-adv-x="587" 
d="M76 286q-11 1 -18.5 8t-7.5 18t8 18.5t19 7.5h434q11 0 18.5 -7.5t7.5 -18.5q0 -12 -7.5 -19t-18.5 -7h-435z" />
    <glyph glyph-name="radical" unicode="&#x221a;" 
 />
    <glyph glyph-name="infinity" unicode="&#x221e;" 
 />
    <glyph glyph-name="integral" unicode="&#x222b;" 
 />
    <glyph glyph-name="approxequal" unicode="&#x2248;" 
 />
    <glyph glyph-name="notequal" unicode="&#x2260;" horiz-adv-x="587" 
d="M187 16q-4 -5 -10.5 -10.5t-13.5 -5.5t-11 3q-16 6 -16 25q0 3 1 6.5t3 8.5l81 182h-145q-11 2 -18.5 9t-7.5 18q0 10 8 18t19 8h166q14 29 25 53.5t24 55.5h-216q-11 1 -18.5 8t-7.5 18t8 18.5t19 7.5h239l105 236q9 18 25 18q2 0 5.5 -1t5.5 -2q16 -5 16 -24
q0 -3 -1 -6t-2 -5l-96 -216h137q11 0 18.5 -7.5t7.5 -19.5q0 -11 -7.5 -18t-18.5 -7h-160q-13 -30 -24.5 -54.5t-24.5 -54.5h209q11 0 18.5 -8t7.5 -19t-7.5 -18.5t-18.5 -7.5h-232z" />
    <glyph glyph-name="lessequal" unicode="&#x2264;" horiz-adv-x="457" 
d="M67 298q-17 12 -17 35q0 11 5 20.5t13 14.5l303 196q4 2 10 2q11 0 18.5 -7t7.5 -19q0 -11 -11 -19l-286 -186l284 -197q13 -7 13 -23q0 -11 -7.5 -17.5t-18.5 -6.5q-9 0 -15 5q-75 50 -137 92q-27 18 -53 35.5t-48.5 32.5t-38.5 26t-22 16zM76 0q-11 2 -18.5 9t-7.5 18
q0 10 7.5 18t19.5 8h304q11 0 18.5 -8t7.5 -19t-7.5 -18.5t-18.5 -7.5h-305z" />
    <glyph glyph-name="greaterequal" unicode="&#x2265;" horiz-adv-x="457" 
d="M389 298q-8 -6 -33.5 -23.5t-58.5 -40t-70 -47t-67.5 -45t-50.5 -33.5l-20 -13q-4 -2 -6 -3.5t-7 -1.5q-12 0 -19 6.5t-7 17.5q0 16 11 22l285 198q-9 6 -26 17t-39 25t-47 30.5t-50 32.5q-58 38 -125 81q-9 7 -9 19q0 26 26 26q5 0 9 -2l302 -196q20 -12 20 -35t-18 -35
zM76 0q-12 0 -19 7.5t-7 18.5t7 19t19 8h304q11 0 19 -8t8 -18q0 -11 -7.5 -18t-18.5 -9h-305z" />
    <glyph glyph-name="lozenge" unicode="&#x25ca;" 
 />
    <glyph glyph-name="fi" unicode="&#xfb01;" horiz-adv-x="522" 
d="M50 475q0 11 7 18t18 7h44q8 85 51.5 130.5t124.5 59.5q29 0 29 -25q0 -21 -20 -24q-59 -10 -90.5 -45t-40.5 -96h127q11 0 18 -7t7 -18t-7 -18t-18 -7h-129v-423q0 -12 -9 -19.5t-19 -7.5q-11 0 -18 7t-7 18v425h-43q-11 0 -18 7t-7 18zM419 473q0 11 7 19t19 8
q11 0 19 -8t8 -19v-447q0 -11 -8 -18.5t-19 -7.5q-12 0 -19 7.5t-7 18.5v447zM419 665q0 12 7 19.5t19 7.5q11 0 19 -7.5t8 -19.5v-19q0 -11 -8 -18.5t-19 -7.5q-12 0 -19 7.5t-7 18.5v19z" />
    <glyph glyph-name="fl" unicode="&#xfb02;" horiz-adv-x="527" 
d="M50 475q0 11 7 18t18 7h44q8 85 51.5 130.5t124.5 59.5q30 0 30 -25q0 -10 -6 -16t-15 -8q-59 -10 -90.5 -45t-40.5 -96h127q11 0 18 -7t7 -18t-7 -18t-18 -7h-129v-423q0 -12 -9 -19.5t-19 -7.5q-11 0 -18 7t-7 18v425h-43q-11 0 -18 7t-7 18zM424 665q0 12 7.5 19.5
t18.5 7.5q12 0 19.5 -7.5t7.5 -21.5v-634q0 -13 -7.5 -21t-19.5 -8q-11 0 -18.5 8t-7.5 19v638z" />
    <glyph glyph-name="apple" horiz-adv-x="0" 
 />
    </font>
</defs>
</svg>
